<svg width="68" height="153" viewBox="0 0 68 153" fill="none" xmlns="http://www.w3.org/2000/svg">
<g clip-path="url(#clip0_311_2478)">
<rect y="152.64" width="152" height="68" rx="5" transform="rotate(-90 0 152.64)" fill="#6AD5BF"/>
<path d="M50 139.296C50 139.648 49.888 139.936 49.664 140.16C49.44 140.384 49.152 140.496 48.8 140.496H45.92C45.664 140.496 45.328 140.432 44.912 140.304C44.464 140.144 44.032 139.808 43.616 139.296L37.328 132.96C35.536 130.624 34.016 128.736 32.768 127.296C31.52 125.824 30.384 124.736 29.36 124.032C28.336 123.328 27.344 122.976 26.384 122.976C25.136 122.976 24.112 123.328 23.312 124.032C22.48 124.704 22.064 125.808 22.064 127.344C22.064 128.368 22.288 129.232 22.736 129.936C23.152 130.608 23.712 131.136 24.416 131.52C25.12 131.904 25.888 132.16 26.72 132.288C27.136 132.384 27.424 132.592 27.584 132.912C27.744 133.2 27.824 133.504 27.824 133.824V138.912C27.824 139.232 27.728 139.488 27.536 139.68C27.312 139.872 27.072 139.968 26.816 139.968C25.344 139.936 23.952 139.632 22.64 139.056C21.328 138.448 20.16 137.6 19.136 136.512C18.112 135.424 17.312 134.112 16.736 132.576C16.128 131.04 15.824 129.296 15.824 127.344C15.824 124.656 16.272 122.4 17.168 120.576C18.032 118.752 19.232 117.376 20.768 116.448C22.304 115.52 24.08 115.056 26.096 115.056C27.632 115.056 29.056 115.376 30.368 116.016C31.68 116.624 32.944 117.52 34.16 118.704C35.344 119.888 36.576 121.296 37.856 122.928L43.52 128.592V115.536C43.52 115.184 43.632 114.896 43.856 114.672C44.08 114.448 44.368 114.336 44.72 114.336H48.8C49.152 114.336 49.44 114.448 49.664 114.672C49.888 114.896 50 115.184 50 115.536V139.296ZM50.48 93.7062C50.48 96.0102 50.16 97.9942 49.52 99.6582C48.848 101.29 47.936 102.65 46.784 103.738C45.6 104.794 44.24 105.594 42.704 106.138C41.136 106.65 39.472 106.954 37.712 107.05C36.848 107.082 35.888 107.114 34.832 107.146C33.744 107.146 32.656 107.146 31.568 107.146C30.48 107.114 29.488 107.082 28.592 107.05C26.832 106.986 25.184 106.682 23.648 106.138C22.112 105.562 20.768 104.73 19.616 103.642C18.464 102.554 17.568 101.194 16.928 99.5622C16.256 97.8982 15.92 95.9462 15.92 93.7062C15.92 91.4662 16.256 89.5302 16.928 87.8982C17.568 86.2662 18.464 84.9062 19.616 83.8182C20.768 82.7302 22.112 81.9142 23.648 81.3702C25.184 80.7942 26.832 80.4582 28.592 80.3622C29.488 80.3302 30.48 80.3142 31.568 80.3142C32.656 80.2822 33.744 80.2822 34.832 80.3142C35.888 80.3142 36.848 80.3302 37.712 80.3622C39.472 80.4582 41.136 80.7782 42.704 81.3222C44.24 81.8662 45.6 82.6822 46.784 83.7702C47.936 84.8262 48.848 86.1862 49.52 87.8502C50.16 89.4822 50.48 91.4342 50.48 93.7062ZM44.24 93.7062C44.24 91.8502 43.632 90.4902 42.416 89.6262C41.2 88.7622 39.552 88.2982 37.472 88.2342C36.544 88.2022 35.584 88.1862 34.592 88.1862C33.6 88.1542 32.608 88.1542 31.616 88.1862C30.624 88.1862 29.696 88.2022 28.832 88.2342C26.848 88.2982 25.232 88.7622 23.984 89.6262C22.736 90.4902 22.096 91.8502 22.064 93.7062C22.096 95.5942 22.736 96.9702 23.984 97.8342C25.232 98.6662 26.848 99.1142 28.832 99.1782C29.696 99.2102 30.624 99.2422 31.616 99.2742C32.608 99.2742 33.6 99.2742 34.592 99.2742C35.584 99.2422 36.544 99.2102 37.472 99.1782C39.552 99.1142 41.2 98.6502 42.416 97.7862C43.632 96.9222 44.24 95.5622 44.24 93.7062ZM50 72.0117C50 72.3637 49.888 72.6517 49.664 72.8757C49.44 73.0997 49.152 73.2117 48.8 73.2117H45.92C45.664 73.2117 45.328 73.1477 44.912 73.0197C44.464 72.8597 44.032 72.5237 43.616 72.0117L37.328 65.6757C35.536 63.3397 34.016 61.4517 32.768 60.0117C31.52 58.5397 30.384 57.4517 29.36 56.7477C28.336 56.0437 27.344 55.6917 26.384 55.6917C25.136 55.6917 24.112 56.0437 23.312 56.7477C22.48 57.4197 22.064 58.5237 22.064 60.0597C22.064 61.0837 22.288 61.9477 22.736 62.6517C23.152 63.3237 23.712 63.8517 24.416 64.2357C25.12 64.6197 25.888 64.8757 26.72 65.0037C27.136 65.0997 27.424 65.3077 27.584 65.6277C27.744 65.9157 27.824 66.2197 27.824 66.5397V71.6277C27.824 71.9477 27.728 72.2037 27.536 72.3957C27.312 72.5877 27.072 72.6837 26.816 72.6837C25.344 72.6517 23.952 72.3477 22.64 71.7717C21.328 71.1637 20.16 70.3157 19.136 69.2277C18.112 68.1397 17.312 66.8277 16.736 65.2917C16.128 63.7557 15.824 62.0117 15.824 60.0597C15.824 57.3717 16.272 55.1157 17.168 53.2917C18.032 51.4677 19.232 50.0917 20.768 49.1637C22.304 48.2357 24.08 47.7717 26.096 47.7717C27.632 47.7717 29.056 48.0917 30.368 48.7317C31.68 49.3397 32.944 50.2357 34.16 51.4197C35.344 52.6037 36.576 54.0117 37.856 55.6437L43.52 61.3077V48.2517C43.52 47.8997 43.632 47.6117 43.856 47.3877C44.08 47.1637 44.368 47.0517 44.72 47.0517H48.8C49.152 47.0517 49.44 47.1637 49.664 47.3877C49.888 47.6117 50 47.8997 50 48.2517V72.0117ZM50 23.9191C50 24.2391 49.888 24.5111 49.664 24.7351C49.44 24.9591 49.152 25.0711 48.8 25.0711H43.04V40.1911C43.04 40.5111 42.928 40.7831 42.704 41.0071C42.48 41.2311 42.192 41.3431 41.84 41.3431H37.952C37.728 41.3431 37.488 41.2951 37.232 41.1991C36.976 41.1031 36.736 40.9751 36.512 40.8151L17.216 26.7511C16.672 26.3351 16.4 25.7431 16.4 24.9751V18.8791C16.4 18.5591 16.512 18.2871 16.736 18.0631C16.96 17.8391 17.248 17.7271 17.6 17.7271H36.656V13.4551C36.656 13.0711 36.768 12.7831 36.992 12.5911C37.216 12.3671 37.488 12.2551 37.808 12.2551H41.84C42.192 12.2551 42.48 12.3671 42.704 12.5911C42.928 12.8151 43.04 13.0871 43.04 13.4071V17.7271H48.8C49.152 17.7271 49.44 17.8391 49.664 18.0631C49.888 18.2871 50 18.5591 50 18.8791V23.9191ZM36.896 33.9031V24.9271H24.272L36.896 33.9031Z" fill="white"/>
</g>
<defs>
<clipPath id="clip0_311_2478">
<rect y="152.64" width="152" height="68" rx="5" transform="rotate(-90 0 152.64)" fill="white"/>
</clipPath>
</defs>
</svg>
