<svg width="75" height="28" viewBox="0 0 75 28" fill="none" xmlns="http://www.w3.org/2000/svg">
<path d="M26.7769 22C26.6169 22 26.4809 21.952 26.3689 21.856C26.2729 21.744 26.2249 21.608 26.2249 21.448V15.784L20.4409 5.992C20.4249 5.944 20.4089 5.896 20.3929 5.848C20.3769 5.8 20.3689 5.744 20.3689 5.68C20.3689 5.552 20.4169 5.44 20.5129 5.344C20.6089 5.248 20.7209 5.2 20.8489 5.2H22.0969C22.2409 5.2 22.3689 5.24 22.4809 5.32C22.5929 5.384 22.6729 5.48 22.7209 5.608L27.4009 13.384L32.0809 5.608C32.1609 5.48 32.2489 5.384 32.3449 5.32C32.4569 5.24 32.5849 5.2 32.7289 5.2H33.9529C34.0969 5.2 34.2169 5.248 34.3129 5.344C34.4089 5.44 34.4569 5.552 34.4569 5.68C34.4569 5.744 34.4489 5.8 34.4329 5.848C34.4169 5.896 34.3929 5.944 34.3609 5.992L28.6009 15.784V21.448C28.6009 21.608 28.5449 21.744 28.4329 21.856C28.3369 21.952 28.2009 22 28.0249 22H26.7769ZM40.5403 22.24C39.3243 22.24 38.3083 22.008 37.4923 21.544C36.6763 21.08 36.0523 20.44 35.6203 19.624C35.1883 18.792 34.9483 17.848 34.9003 16.792C34.8843 16.52 34.8763 16.176 34.8763 15.76C34.8763 15.328 34.8843 14.984 34.9003 14.728C34.9483 13.656 35.1883 12.712 35.6203 11.896C36.0683 11.08 36.7003 10.44 37.5163 9.976C38.3323 9.512 39.3403 9.28 40.5403 9.28C41.7403 9.28 42.7483 9.512 43.5643 9.976C44.3803 10.44 45.0043 11.08 45.4363 11.896C45.8843 12.712 46.1323 13.656 46.1803 14.728C46.1963 14.984 46.2043 15.328 46.2043 15.76C46.2043 16.176 46.1963 16.52 46.1803 16.792C46.1323 17.848 45.8923 18.792 45.4603 19.624C45.0283 20.44 44.4043 21.08 43.5883 21.544C42.7723 22.008 41.7563 22.24 40.5403 22.24ZM40.5403 20.392C41.5323 20.392 42.3243 20.08 42.9163 19.456C43.5083 18.816 43.8283 17.888 43.8763 16.672C43.8923 16.432 43.9003 16.128 43.9003 15.76C43.9003 15.392 43.8923 15.088 43.8763 14.848C43.8283 13.632 43.5083 12.712 42.9163 12.088C42.3243 11.448 41.5323 11.128 40.5403 11.128C39.5483 11.128 38.7483 11.448 38.1403 12.088C37.5483 12.712 37.2363 13.632 37.2043 14.848C37.1883 15.088 37.1803 15.392 37.1803 15.76C37.1803 16.128 37.1883 16.432 37.2043 16.672C37.2363 17.888 37.5483 18.816 38.1403 19.456C38.7483 20.08 39.5483 20.392 40.5403 20.392ZM54.3456 22.24C53.3216 22.24 52.4496 22.016 51.7296 21.568C51.0256 21.104 50.4896 20.464 50.1216 19.648C49.7536 18.832 49.5696 17.896 49.5696 16.84V10.072C49.5696 9.912 49.6176 9.784 49.7136 9.688C49.8256 9.576 49.9616 9.52 50.1216 9.52H51.3216C51.4816 9.52 51.6096 9.576 51.7056 9.688C51.8176 9.784 51.8736 9.912 51.8736 10.072V16.72C51.8736 19.104 52.9136 20.296 54.9936 20.296C55.9856 20.296 56.7776 19.984 57.3696 19.36C57.9776 18.72 58.2816 17.84 58.2816 16.72V10.072C58.2816 9.912 58.3296 9.784 58.4256 9.688C58.5376 9.576 58.6736 9.52 58.8336 9.52H60.0096C60.1856 9.52 60.3216 9.576 60.4176 9.688C60.5136 9.784 60.5616 9.912 60.5616 10.072V21.448C60.5616 21.608 60.5136 21.744 60.4176 21.856C60.3216 21.952 60.1856 22 60.0096 22H58.9056C58.7456 22 58.6096 21.952 58.4976 21.856C58.4016 21.744 58.3536 21.608 58.3536 21.448V20.392C57.9216 20.952 57.3936 21.4 56.7696 21.736C56.1616 22.072 55.3536 22.24 54.3456 22.24Z" fill="#328AC9"/>
<path fill-rule="evenodd" clip-rule="evenodd" d="M13.2013 13.6477V15.125H7.26073V21.7727H5.94059V15.125H0V13.6477H5.94059V7H7.26073V13.6477H13.2013Z" fill="#328AC9"/>
</svg>
