<svg width="16" height="17" viewBox="0 0 16 17" fill="none" xmlns="http://www.w3.org/2000/svg">
<path fill-rule="evenodd" clip-rule="evenodd" d="M14.4075 0.5H5.50225C5.07092 0.5 4.79643 0.854283 4.79643 1.28534V1.30773C4.79643 1.74759 5.06131 2.09947 5.50145 2.09947H12.3428C12.6997 2.09947 12.8774 2.53453 12.6253 2.78564L0.231774 15.1511C-0.0771245 15.459 -0.0771245 15.9605 0.230974 16.2684V16.2692C0.539872 16.5771 1.04003 16.5771 1.34733 16.2684L13.7201 3.87248C13.9722 3.62057 14.3995 3.79891 14.3995 4.15479V10.9165C14.3995 11.3516 14.7604 11.6963 15.1965 11.6963H15.219C15.6551 11.6963 16 11.3516 16 10.9165V2.10827C16 1.22456 15.2918 0.5 14.4075 0.5Z" fill="#328AC9"/>
</svg>
