<svg width="28" height="20" viewBox="0 0 28 20" fill="none" xmlns="http://www.w3.org/2000/svg">
<path fill-rule="evenodd" clip-rule="evenodd" d="M26.8657 8.72356L18.9945 0.852365C18.6133 0.471113 18.0575 0.541643 17.6765 0.922647L17.6567 0.942439C17.2679 1.33122 17.191 1.87637 17.5801 2.2654L23.627 8.31239C23.9425 8.62786 23.715 9.16942 23.2702 9.16857L1.38612 9.14378C0.840943 9.1429 0.397735 9.58611 0.397912 10.1306L0.397205 10.1313C0.398089 10.6765 0.840172 11.1185 1.38464 11.1173L23.2772 11.0968C23.7227 11.097 23.9428 11.6323 23.6282 11.9469L17.6516 17.9235C17.2671 18.308 17.2814 18.9317 17.6669 19.3172L17.6867 19.337C18.0722 19.7225 18.6817 19.7227 19.0663 19.3382L26.8518 11.5527C27.6329 10.7716 27.6473 9.50516 26.8657 8.72356Z" fill="white"/>
</svg>
