<svg width="111" height="24" viewBox="0 0 111 24" fill="none" xmlns="http://www.w3.org/2000/svg">
<path d="M56.6473 18.389C56.6473 18.9412 56.5012 19.394 56.209 19.7474C55.2424 21.0507 53.9386 22.0888 52.2976 22.8619C50.6566 23.613 48.8021 23.9885 46.7341 23.9885C44.9582 23.9885 43.3622 23.7124 41.946 23.1601C39.833 22.3429 38.1471 21.0065 36.8882 19.151C35.6294 17.2293 35 15.0094 35 12.4912C35 9.92893 35.6294 7.72005 36.8882 5.86459C37.2704 5.26819 37.8548 4.58343 38.6416 3.81032C39.4733 2.99304 40.6085 2.31933 42.0472 1.78919C43.4858 1.25906 45.0481 0.993997 46.7341 0.993997C50.578 0.993997 53.6014 2.25306 55.8043 4.77119C56.1865 5.16879 56.3888 5.66579 56.4113 6.26219C56.3888 6.83649 56.1977 7.30036 55.8381 7.65378C55.4784 8.0072 55.0176 8.18391 54.4556 8.18391C53.7363 8.13974 53.1743 7.87467 52.7697 7.38871C52.0953 6.52725 51.376 5.91981 50.6117 5.56639C49.3753 4.92581 48.094 4.60552 46.7678 4.60552C44.5199 4.60552 42.6766 5.3455 41.2379 6.82545C39.8218 8.28331 39.1137 10.1719 39.1137 12.4912C39.1137 14.8106 39.8218 16.7102 41.2379 18.1902C42.6766 19.648 44.5199 20.377 46.7678 20.377C49.5102 20.377 51.6008 19.3388 53.0394 17.2624C53.444 16.7544 53.9948 16.4893 54.6916 16.4672C55.2986 16.4672 55.7706 16.6439 56.1078 16.9974C56.4675 17.3508 56.6473 17.8146 56.6473 18.389Z" fill="white"/>
<path d="M58.9388 15.672C58.9388 14.5013 59.1974 13.2423 59.7144 11.8948C60.2314 10.6358 61.2205 9.54238 62.6816 8.61465C64.1427 7.68691 65.7837 7.25618 67.6045 7.32245C70.1896 7.32245 72.2689 8.09556 73.8424 9.64178C74.0897 9.90684 74.3145 10.1609 74.5168 10.4038C74.7416 10.6468 74.9214 10.9119 75.0563 11.199C75.2137 11.4641 75.3485 11.685 75.4609 11.8617C75.5733 12.0384 75.6745 12.2814 75.7644 12.5906C75.8543 12.8778 75.9217 13.0876 75.9667 13.2202C76.0117 13.3527 76.0566 13.5846 76.1016 13.916C76.1465 14.2252 76.169 14.413 76.169 14.4792C76.1915 14.5455 76.214 14.7553 76.2365 15.1088C76.2589 15.4622 76.2702 15.6499 76.2702 15.672C76.2702 16.8869 76.0004 18.146 75.4609 19.4492C74.9664 20.6862 73.9773 21.7796 72.4937 22.7294C71.0101 23.6571 69.3804 24.0768 67.6045 23.9885C65.0194 23.9885 62.9289 23.2264 61.3329 21.7023C60.5461 20.9292 60.0066 20.1782 59.7144 19.4492C59.1974 18.0355 58.9388 16.7765 58.9388 15.672ZM64.0641 12.0605C63.1649 12.9882 62.7153 14.1921 62.7153 15.672C62.7153 17.152 63.1649 18.3558 64.0641 19.2836C64.9857 20.1892 66.1659 20.642 67.6045 20.642C69.0656 20.642 70.2458 20.1892 71.145 19.2836C72.0441 18.3558 72.4937 17.152 72.4937 15.672C72.4937 14.17 72.0441 12.9661 71.145 12.0605C70.2458 11.1328 69.0656 10.6689 67.6045 10.6689C66.1659 10.6689 64.9857 11.1328 64.0641 12.0605Z" fill="white"/>
<path d="M88.5722 7.32245C90.7976 7.32245 92.4948 7.95198 93.6637 9.21104C94.8326 10.4701 95.417 12.3035 95.417 14.7112V21.8348C95.417 22.4533 95.2484 22.9393 94.9113 23.2927C94.5965 23.624 94.147 23.7897 93.5625 23.7897C92.9781 23.7897 92.5172 23.624 92.1801 23.2927C91.8653 22.9393 91.708 22.4533 91.708 21.8348V15.1088C91.708 13.673 91.3596 12.5796 90.6627 11.8286C89.9659 11.0555 88.9543 10.6689 87.6281 10.6689C86.2344 10.6689 85.1441 11.1107 84.3574 11.9942C83.5706 12.8778 83.1772 14.0816 83.1772 15.6058V21.8348C83.1772 22.4533 83.0086 22.9393 82.6714 23.2927C82.3567 23.624 81.9071 23.7897 81.3227 23.7897C80.7382 23.7897 80.2774 23.624 79.9402 23.2927C79.6255 22.9393 79.4682 22.4533 79.4682 21.8348V9.47611C79.4682 8.85762 79.6255 8.38271 79.9402 8.05138C80.2774 7.69796 80.7382 7.52125 81.3227 7.52125C81.9071 7.52125 82.3567 7.69796 82.6714 8.05138C83.0086 8.38271 83.1772 8.85762 83.1772 9.47611V9.57551H83.2446C84.481 8.07347 86.2568 7.32245 88.5722 7.32245Z" fill="white"/>
<path d="M105.403 3.34646C104.526 3.34646 103.84 3.60048 103.346 4.10852C102.874 4.61657 102.638 5.3455 102.638 6.29532V7.72005H108.269C109.483 7.72005 110.09 8.28331 110.09 9.40984C110.09 10.5143 109.483 11.0665 108.269 11.0665H102.638V21.8348C102.638 22.4533 102.469 22.9393 102.132 23.2927C101.817 23.624 101.368 23.7897 100.783 23.7897C100.199 23.7897 99.738 23.624 99.4008 23.2927C99.0861 22.9393 98.9288 22.4533 98.9288 21.8348V6.39472C98.9288 4.38463 99.4795 2.81633 100.581 1.6898C101.682 0.563265 103.222 0 105.2 0C107.808 0 109.651 0.894597 110.73 2.68379C110.91 3.03721 111 3.37959 111 3.71092C110.978 4.79328 110.416 5.35654 109.314 5.40072C108.662 5.37863 108.19 5.1467 107.898 4.70492C107.313 3.79928 106.482 3.34646 105.403 3.34646Z" fill="white"/>
<rect y="2" width="5" height="21" fill="white"/>
<rect x="7" y="2" width="5" height="13" fill="white"/>
<rect x="14" y="2" width="5" height="21" fill="white"/>
<rect x="21" y="7" width="5" height="10" transform="rotate(-90 21 7)" fill="white"/>
</svg>
