<svg width="260" height="83" viewBox="0 0 260 83" fill="none" xmlns="http://www.w3.org/2000/svg">
<path d="M1.584 12.6397C1.46667 12.6397 1.37067 12.6024 1.296 12.5277C1.22133 12.4531 1.184 12.3571 1.184 12.2397V1.83974C1.184 1.72241 1.22133 1.62641 1.296 1.55174C1.37067 1.47707 1.46667 1.43974 1.584 1.43974H3.392C3.50933 1.43974 3.60533 1.47707 3.68 1.55174C3.75467 1.62641 3.792 1.72241 3.792 1.83974V12.2397C3.792 12.3571 3.75467 12.4531 3.68 12.5277C3.60533 12.6024 3.50933 12.6397 3.392 12.6397H1.584ZM6.36075 12.6397C6.25408 12.6397 6.16342 12.6024 6.08875 12.5277C6.01408 12.4531 5.97675 12.3571 5.97675 12.2397V4.71974C5.97675 4.60241 6.01408 4.50641 6.08875 4.43174C6.16342 4.35707 6.25408 4.31974 6.36075 4.31974H7.92875C8.04608 4.31974 8.14208 4.35707 8.21675 4.43174C8.29142 4.50641 8.32875 4.60241 8.32875 4.71974V5.34374C8.60608 5.00241 8.96342 4.71974 9.40075 4.49574C9.83808 4.27174 10.3714 4.15974 11.0008 4.15974C11.6301 4.15974 12.1794 4.30374 12.6488 4.59174C13.1288 4.86907 13.5021 5.27974 13.7688 5.82374C14.0461 6.35707 14.1848 7.00774 14.1848 7.77574V12.2397C14.1848 12.3571 14.1421 12.4531 14.0568 12.5277C13.9821 12.6024 13.8914 12.6397 13.7847 12.6397H12.0888C11.9714 12.6397 11.8754 12.6024 11.8008 12.5277C11.7261 12.4531 11.6888 12.3571 11.6888 12.2397V7.87174C11.6888 7.30641 11.5501 6.86907 11.2728 6.55974C11.0061 6.23974 10.6114 6.07974 10.0888 6.07974C9.58742 6.07974 9.18742 6.23974 8.88875 6.55974C8.59008 6.86907 8.44075 7.30641 8.44075 7.87174V12.2397C8.44075 12.3571 8.40342 12.4531 8.32875 12.5277C8.25408 12.6024 8.16342 12.6397 8.05675 12.6397H6.36075ZM16.4858 12.6397C16.3791 12.6397 16.2884 12.6024 16.2138 12.5277C16.1391 12.4531 16.1018 12.3571 16.1018 12.2397V4.71974C16.1018 4.60241 16.1391 4.50641 16.2138 4.43174C16.2884 4.35707 16.3791 4.31974 16.4858 4.31974H18.0538C18.1711 4.31974 18.2671 4.35707 18.3418 4.43174C18.4164 4.50641 18.4538 4.60241 18.4538 4.71974V5.34374C18.7311 5.00241 19.0884 4.71974 19.5258 4.49574C19.9631 4.27174 20.4964 4.15974 21.1258 4.15974C21.7551 4.15974 22.3044 4.30374 22.7738 4.59174C23.2538 4.86907 23.6271 5.27974 23.8938 5.82374C24.1711 6.35707 24.3098 7.00774 24.3098 7.77574V12.2397C24.3098 12.3571 24.2671 12.4531 24.1818 12.5277C24.1071 12.6024 24.0164 12.6397 23.9097 12.6397H22.2138C22.0964 12.6397 22.0004 12.6024 21.9258 12.5277C21.8511 12.4531 21.8138 12.3571 21.8138 12.2397V7.87174C21.8138 7.30641 21.6751 6.86907 21.3978 6.55974C21.1311 6.23974 20.7364 6.07974 20.2138 6.07974C19.7124 6.07974 19.3124 6.23974 19.0138 6.55974C18.7151 6.86907 18.5658 7.30641 18.5658 7.87174V12.2397C18.5658 12.3571 18.5284 12.4531 18.4538 12.5277C18.3791 12.6024 18.2884 12.6397 18.1818 12.6397H16.4858ZM30.0348 12.7997C29.1494 12.7997 28.4081 12.6557 27.8108 12.3677C27.2134 12.0691 26.7548 11.6477 26.4348 11.1037C26.1254 10.5597 25.9548 9.92507 25.9228 9.19974C25.9121 8.98641 25.9068 8.74641 25.9068 8.47974C25.9068 8.20241 25.9121 7.96241 25.9228 7.75974C25.9548 7.02374 26.1361 6.38907 26.4668 5.85574C26.7974 5.31174 27.2614 4.89574 27.8588 4.60774C28.4561 4.30907 29.1814 4.15974 30.0348 4.15974C30.8774 4.15974 31.5974 4.30907 32.1948 4.60774C32.7921 4.89574 33.2561 5.31174 33.5868 5.85574C33.9174 6.38907 34.0988 7.02374 34.1308 7.75974C34.1521 7.96241 34.1628 8.20241 34.1628 8.47974C34.1628 8.74641 34.1521 8.98641 34.1308 9.19974C34.0988 9.92507 33.9228 10.5597 33.6028 11.1037C33.2934 11.6477 32.8401 12.0691 32.2428 12.3677C31.6454 12.6557 30.9094 12.7997 30.0348 12.7997ZM30.0348 11.0397C30.5574 11.0397 30.9521 10.8797 31.2188 10.5597C31.4854 10.2291 31.6294 9.74907 31.6508 9.11974C31.6614 8.95974 31.6668 8.74641 31.6668 8.47974C31.6668 8.21307 31.6614 7.99974 31.6508 7.83974C31.6294 7.22107 31.4854 6.74641 31.2188 6.41574C30.9521 6.08507 30.5574 5.91974 30.0348 5.91974C29.5121 5.91974 29.1121 6.08507 28.8348 6.41574C28.5681 6.74641 28.4241 7.22107 28.4028 7.83974C28.3921 7.99974 28.3868 8.21307 28.3868 8.47974C28.3868 8.74641 28.3921 8.95974 28.4028 9.11974C28.4241 9.74907 28.5681 10.2291 28.8348 10.5597C29.1121 10.8797 29.5121 11.0397 30.0348 11.0397ZM38.4676 12.6397C38.3076 12.6397 38.185 12.6024 38.0996 12.5277C38.025 12.4424 37.961 12.3464 37.9076 12.2397L34.8996 4.81574C34.8783 4.77307 34.8676 4.72507 34.8676 4.67174C34.8676 4.57574 34.8996 4.49574 34.9636 4.43174C35.0383 4.35707 35.1236 4.31974 35.2196 4.31974H36.7716C36.9103 4.31974 37.0116 4.35707 37.0756 4.43174C37.1503 4.50641 37.1983 4.57574 37.2196 4.63974L39.1876 9.91974L41.1556 4.63974C41.1876 4.57574 41.2356 4.50641 41.2996 4.43174C41.3743 4.35707 41.4756 4.31974 41.6036 4.31974H43.1556C43.2516 4.31974 43.3316 4.35707 43.3956 4.43174C43.4703 4.49574 43.5076 4.57574 43.5076 4.67174C43.5076 4.72507 43.5023 4.77307 43.4916 4.81574L40.4676 12.2397C40.425 12.3464 40.361 12.4424 40.2756 12.5277C40.1903 12.6024 40.0676 12.6397 39.9076 12.6397H38.4676ZM46.9716 12.7997C46.4063 12.7997 45.8996 12.6931 45.4516 12.4797C45.0036 12.2557 44.6463 11.9571 44.3796 11.5837C44.113 11.2104 43.9796 10.7944 43.9796 10.3357C43.9796 9.57841 44.2836 8.98107 44.8916 8.54374C45.5103 8.10641 46.321 7.80774 47.3236 7.64774L49.4196 7.34374V7.05574C49.4196 6.63974 49.3236 6.31974 49.1316 6.09574C48.9396 5.87174 48.6036 5.75974 48.1236 5.75974C47.7716 5.75974 47.489 5.82907 47.2756 5.96774C47.0623 6.10641 46.897 6.28774 46.7796 6.51174C46.6943 6.65041 46.5716 6.71974 46.4116 6.71974H44.8916C44.7743 6.71974 44.6836 6.68774 44.6196 6.62374C44.5556 6.54907 44.529 6.46374 44.5396 6.36774C44.5396 6.18641 44.609 5.97307 44.7476 5.72774C44.8863 5.48241 45.0996 5.24241 45.3876 5.00774C45.6756 4.76241 46.0436 4.55974 46.4916 4.39974C46.9396 4.23974 47.489 4.15974 48.1396 4.15974C48.8116 4.15974 49.3876 4.23974 49.8676 4.39974C50.3476 4.55974 50.7316 4.78374 51.0196 5.07174C51.3076 5.35974 51.521 5.69574 51.6596 6.07974C51.7983 6.45307 51.8676 6.85841 51.8676 7.29574V12.2397C51.8676 12.3571 51.8303 12.4531 51.7556 12.5277C51.681 12.6024 51.585 12.6397 51.4676 12.6397H49.8996C49.793 12.6397 49.7023 12.6024 49.6276 12.5277C49.553 12.4531 49.5156 12.3571 49.5156 12.2397V11.6477C49.377 11.8504 49.1903 12.0424 48.9556 12.2237C48.721 12.3944 48.4383 12.5331 48.1076 12.6397C47.7876 12.7464 47.409 12.7997 46.9716 12.7997ZM47.6116 11.1357C47.9636 11.1357 48.2783 11.0611 48.5556 10.9117C48.833 10.7624 49.0516 10.5331 49.2116 10.2237C49.3716 9.91441 49.4516 9.52507 49.4516 9.05574V8.78374L47.9636 9.02374C47.3876 9.11974 46.9663 9.26374 46.6996 9.45574C46.433 9.64774 46.2996 9.88241 46.2996 10.1597C46.2996 10.3624 46.3583 10.5384 46.4756 10.6877C46.6036 10.8371 46.769 10.9491 46.9716 11.0237C47.1743 11.0984 47.3876 11.1357 47.6116 11.1357ZM57.7424 12.6397C57.081 12.6397 56.5157 12.5331 56.0464 12.3197C55.577 12.0957 55.2197 11.7544 54.9744 11.2957C54.7397 10.8371 54.6224 10.2611 54.6224 9.56774V6.20774H53.3744C53.257 6.20774 53.161 6.17041 53.0864 6.09574C53.0117 6.02107 52.9744 5.92507 52.9744 5.80774V4.71974C52.9744 4.60241 53.0117 4.50641 53.0864 4.43174C53.161 4.35707 53.257 4.31974 53.3744 4.31974H54.6224V1.67974C54.6224 1.56241 54.6597 1.46641 54.7344 1.39174C54.8197 1.31707 54.9157 1.27974 55.0224 1.27974H56.5904C56.7077 1.27974 56.8037 1.31707 56.8784 1.39174C56.953 1.46641 56.9904 1.56241 56.9904 1.67974V4.31974H58.9904C59.097 4.31974 59.1877 4.35707 59.2624 4.43174C59.337 4.50641 59.3744 4.60241 59.3744 4.71974V5.80774C59.3744 5.92507 59.337 6.02107 59.2624 6.09574C59.1877 6.17041 59.097 6.20774 58.9904 6.20774H56.9904V9.37574C56.9904 9.78107 57.0597 10.1011 57.1984 10.3357C57.3477 10.5597 57.6037 10.6717 57.9664 10.6717H59.1344C59.241 10.6717 59.3317 10.7091 59.4064 10.7837C59.481 10.8584 59.5184 10.9491 59.5184 11.0557V12.2397C59.5184 12.3571 59.481 12.4531 59.4064 12.5277C59.3317 12.6024 59.241 12.6397 59.1344 12.6397H57.7424ZM61.2983 12.6397C61.1916 12.6397 61.1009 12.6024 61.0263 12.5277C60.9516 12.4531 60.9143 12.3571 60.9143 12.2397V4.71974C60.9143 4.60241 60.9516 4.50641 61.0263 4.43174C61.1009 4.35707 61.1916 4.31974 61.2983 4.31974H62.8983C63.0156 4.31974 63.1116 4.35707 63.1863 4.43174C63.2609 4.50641 63.2983 4.60241 63.2983 4.71974V12.2397C63.2983 12.3571 63.2609 12.4531 63.1863 12.5277C63.1116 12.6024 63.0156 12.6397 62.8983 12.6397H61.2983ZM61.2503 3.03974C61.1436 3.03974 61.0529 3.00241 60.9783 2.92774C60.9036 2.85307 60.8663 2.75707 60.8663 2.63974V1.35974C60.8663 1.24241 60.9036 1.14641 60.9783 1.07174C61.0529 0.986406 61.1436 0.94374 61.2503 0.94374H62.9303C63.0476 0.94374 63.1436 0.986406 63.2183 1.07174C63.3036 1.14641 63.3463 1.24241 63.3463 1.35974V2.63974C63.3463 2.75707 63.3036 2.85307 63.2183 2.92774C63.1436 3.00241 63.0476 3.03974 62.9303 3.03974H61.2503ZM69.1754 12.7997C68.29 12.7997 67.5487 12.6557 66.9514 12.3677C66.354 12.0691 65.8954 11.6477 65.5754 11.1037C65.266 10.5597 65.0954 9.92507 65.0634 9.19974C65.0527 8.98641 65.0474 8.74641 65.0474 8.47974C65.0474 8.20241 65.0527 7.96241 65.0634 7.75974C65.0954 7.02374 65.2767 6.38907 65.6074 5.85574C65.938 5.31174 66.402 4.89574 66.9994 4.60774C67.5967 4.30907 68.322 4.15974 69.1754 4.15974C70.018 4.15974 70.738 4.30907 71.3354 4.60774C71.9327 4.89574 72.3967 5.31174 72.7274 5.85574C73.058 6.38907 73.2394 7.02374 73.2714 7.75974C73.2927 7.96241 73.3034 8.20241 73.3034 8.47974C73.3034 8.74641 73.2927 8.98641 73.2714 9.19974C73.2394 9.92507 73.0634 10.5597 72.7434 11.1037C72.434 11.6477 71.9807 12.0691 71.3834 12.3677C70.786 12.6557 70.05 12.7997 69.1754 12.7997ZM69.1754 11.0397C69.698 11.0397 70.0927 10.8797 70.3594 10.5597C70.626 10.2291 70.77 9.74907 70.7914 9.11974C70.802 8.95974 70.8074 8.74641 70.8074 8.47974C70.8074 8.21307 70.802 7.99974 70.7914 7.83974C70.77 7.22107 70.626 6.74641 70.3594 6.41574C70.0927 6.08507 69.698 5.91974 69.1754 5.91974C68.6527 5.91974 68.2527 6.08507 67.9754 6.41574C67.7087 6.74641 67.5647 7.22107 67.5434 7.83974C67.5327 7.99974 67.5274 8.21307 67.5274 8.47974C67.5274 8.74641 67.5327 8.95974 67.5434 9.11974C67.5647 9.74907 67.7087 10.2291 67.9754 10.5597C68.2527 10.8797 68.6527 11.0397 69.1754 11.0397ZM75.3608 12.6397C75.2541 12.6397 75.1634 12.6024 75.0888 12.5277C75.0141 12.4531 74.9768 12.3571 74.9768 12.2397V4.71974C74.9768 4.60241 75.0141 4.50641 75.0888 4.43174C75.1634 4.35707 75.2541 4.31974 75.3608 4.31974H76.9288C77.0461 4.31974 77.1421 4.35707 77.2168 4.43174C77.2914 4.50641 77.3288 4.60241 77.3288 4.71974V5.34374C77.6061 5.00241 77.9634 4.71974 78.4008 4.49574C78.8381 4.27174 79.3714 4.15974 80.0008 4.15974C80.6301 4.15974 81.1794 4.30374 81.6488 4.59174C82.1288 4.86907 82.5021 5.27974 82.7688 5.82374C83.0461 6.35707 83.1848 7.00774 83.1848 7.77574V12.2397C83.1848 12.3571 83.1421 12.4531 83.0568 12.5277C82.9821 12.6024 82.8914 12.6397 82.7847 12.6397H81.0888C80.9714 12.6397 80.8754 12.6024 80.8008 12.5277C80.7261 12.4531 80.6888 12.3571 80.6888 12.2397V7.87174C80.6888 7.30641 80.5501 6.86907 80.2728 6.55974C80.0061 6.23974 79.6114 6.07974 79.0888 6.07974C78.5874 6.07974 78.1874 6.23974 77.8888 6.55974C77.5901 6.86907 77.4408 7.30641 77.4408 7.87174V12.2397C77.4408 12.3571 77.4034 12.4531 77.3288 12.5277C77.2541 12.6024 77.1634 12.6397 77.0568 12.6397H75.3608ZM92.441 12.7997C91.5557 12.7997 90.8143 12.6557 90.217 12.3677C89.6197 12.0691 89.161 11.6477 88.841 11.1037C88.5317 10.5597 88.361 9.92507 88.329 9.19974C88.3183 8.98641 88.313 8.74641 88.313 8.47974C88.313 8.20241 88.3183 7.96241 88.329 7.75974C88.361 7.02374 88.5423 6.38907 88.873 5.85574C89.2037 5.31174 89.6677 4.89574 90.265 4.60774C90.8623 4.30907 91.5877 4.15974 92.441 4.15974C93.2837 4.15974 94.0037 4.30907 94.601 4.60774C95.1983 4.89574 95.6623 5.31174 95.993 5.85574C96.3237 6.38907 96.505 7.02374 96.537 7.75974C96.5583 7.96241 96.569 8.20241 96.569 8.47974C96.569 8.74641 96.5583 8.98641 96.537 9.19974C96.505 9.92507 96.329 10.5597 96.009 11.1037C95.6997 11.6477 95.2463 12.0691 94.649 12.3677C94.0517 12.6557 93.3157 12.7997 92.441 12.7997ZM92.441 11.0397C92.9637 11.0397 93.3583 10.8797 93.625 10.5597C93.8917 10.2291 94.0357 9.74907 94.057 9.11974C94.0677 8.95974 94.073 8.74641 94.073 8.47974C94.073 8.21307 94.0677 7.99974 94.057 7.83974C94.0357 7.22107 93.8917 6.74641 93.625 6.41574C93.3583 6.08507 92.9637 5.91974 92.441 5.91974C91.9183 5.91974 91.5183 6.08507 91.241 6.41574C90.9743 6.74641 90.8303 7.22107 90.809 7.83974C90.7983 7.99974 90.793 8.21307 90.793 8.47974C90.793 8.74641 90.7983 8.95974 90.809 9.11974C90.8303 9.74907 90.9743 10.2291 91.241 10.5597C91.5183 10.8797 91.9183 11.0397 92.441 11.0397ZM99.4763 12.6397C99.3589 12.6397 99.2629 12.6024 99.1883 12.5277C99.1136 12.4531 99.0763 12.3571 99.0763 12.2397V6.20774H97.8283C97.7109 6.20774 97.6149 6.17041 97.5403 6.09574C97.4656 6.02107 97.4283 5.92507 97.4283 5.80774V4.71974C97.4283 4.60241 97.4656 4.50641 97.5403 4.43174C97.6149 4.35707 97.7109 4.31974 97.8283 4.31974H99.0763V3.74374C99.0763 3.06107 99.2043 2.50107 99.4603 2.06374C99.7163 1.62641 100.09 1.30641 100.58 1.10374C101.071 0.901073 101.674 0.79974 102.388 0.79974H103.556C103.674 0.79974 103.77 0.837073 103.844 0.911739C103.919 0.986406 103.956 1.08241 103.956 1.19974V2.28774C103.956 2.40507 103.919 2.50107 103.844 2.57574C103.77 2.65041 103.674 2.68774 103.556 2.68774H102.484C102.09 2.68774 101.812 2.78374 101.652 2.97574C101.503 3.16774 101.428 3.45041 101.428 3.82374V4.31974H103.396C103.514 4.31974 103.61 4.35707 103.684 4.43174C103.759 4.50641 103.796 4.60241 103.796 4.71974V5.80774C103.796 5.92507 103.759 6.02107 103.684 6.09574C103.61 6.17041 103.514 6.20774 103.396 6.20774H101.428V12.2397C101.428 12.3571 101.391 12.4531 101.316 12.5277C101.242 12.6024 101.151 12.6397 101.044 12.6397H99.4763ZM110.876 12.6397C110.759 12.6397 110.663 12.6024 110.588 12.5277C110.513 12.4531 110.476 12.3571 110.476 12.2397V3.66374H107.564C107.457 3.66374 107.367 3.62641 107.292 3.55174C107.217 3.47707 107.18 3.38641 107.18 3.27974V1.83974C107.18 1.72241 107.217 1.62641 107.292 1.55174C107.367 1.47707 107.457 1.43974 107.564 1.43974H115.948C116.065 1.43974 116.161 1.47707 116.236 1.55174C116.311 1.62641 116.348 1.72241 116.348 1.83974V3.27974C116.348 3.38641 116.311 3.47707 116.236 3.55174C116.161 3.62641 116.065 3.66374 115.948 3.66374H113.052V12.2397C113.052 12.3571 113.015 12.4531 112.94 12.5277C112.865 12.6024 112.769 12.6397 112.652 12.6397H110.876ZM119.986 12.7997C118.759 12.7997 117.783 12.4584 117.058 11.7757C116.343 11.0931 115.964 10.1011 115.922 8.79974C115.922 8.71441 115.922 8.60241 115.922 8.46374C115.922 8.31441 115.922 8.19707 115.922 8.11174C115.964 7.29041 116.151 6.58641 116.482 5.99974C116.812 5.40241 117.276 4.94907 117.874 4.63974C118.471 4.31974 119.17 4.15974 119.97 4.15974C120.866 4.15974 121.612 4.34641 122.21 4.71974C122.818 5.08241 123.271 5.58374 123.57 6.22374C123.879 6.85307 124.034 7.57841 124.034 8.39974V8.76774C124.034 8.87441 123.991 8.96507 123.906 9.03974C123.831 9.11441 123.74 9.15174 123.634 9.15174H118.402C118.402 9.16241 118.402 9.18374 118.402 9.21574C118.402 9.23707 118.402 9.25841 118.402 9.27974C118.412 9.62107 118.476 9.93574 118.594 10.2237C118.722 10.5011 118.898 10.7251 119.122 10.8957C119.356 11.0664 119.634 11.1517 119.954 11.1517C120.22 11.1517 120.439 11.1144 120.61 11.0397C120.78 10.9651 120.919 10.8744 121.026 10.7677C121.143 10.6611 121.228 10.5704 121.282 10.4957C121.378 10.3891 121.452 10.3251 121.506 10.3037C121.57 10.2717 121.666 10.2557 121.794 10.2557H123.458C123.564 10.2557 123.65 10.2877 123.714 10.3517C123.788 10.4051 123.82 10.4851 123.81 10.5917C123.799 10.7624 123.708 10.9757 123.538 11.2317C123.378 11.4771 123.138 11.7224 122.818 11.9677C122.498 12.2024 122.098 12.3997 121.618 12.5597C121.148 12.7197 120.604 12.7997 119.986 12.7997ZM118.402 7.69574H121.538V7.66374C121.538 7.27974 121.474 6.94907 121.346 6.67174C121.228 6.38374 121.052 6.15974 120.818 5.99974C120.583 5.83974 120.3 5.75974 119.97 5.75974C119.639 5.75974 119.356 5.83974 119.122 5.99974C118.887 6.15974 118.706 6.38374 118.578 6.67174C118.46 6.94907 118.402 7.27974 118.402 7.66374V7.69574ZM129.329 12.7997C128.55 12.7997 127.862 12.6557 127.265 12.3677C126.678 12.0797 126.214 11.6637 125.873 11.1197C125.532 10.5651 125.345 9.90374 125.313 9.13574C125.302 8.96507 125.297 8.75174 125.297 8.49574C125.297 8.22907 125.302 8.01041 125.313 7.83974C125.345 7.06107 125.526 6.39974 125.857 5.85574C126.198 5.30107 126.668 4.87974 127.265 4.59174C127.862 4.30374 128.55 4.15974 129.329 4.15974C130.044 4.15974 130.652 4.26107 131.153 4.46374C131.654 4.65574 132.065 4.90107 132.385 5.19974C132.705 5.49841 132.94 5.81307 133.089 6.14374C133.249 6.46374 133.334 6.74641 133.345 6.99174C133.356 7.09841 133.318 7.19441 133.233 7.27974C133.158 7.35441 133.068 7.39174 132.961 7.39174H131.249C131.142 7.39174 131.057 7.36507 130.993 7.31174C130.94 7.24774 130.886 7.16241 130.833 7.05574C130.684 6.68241 130.492 6.41574 130.257 6.25574C130.022 6.09574 129.729 6.01574 129.377 6.01574C128.897 6.01574 128.518 6.17041 128.241 6.47974C127.964 6.78907 127.814 7.26907 127.793 7.91974C127.782 8.33574 127.782 8.71441 127.793 9.05574C127.825 9.71707 127.974 10.1971 128.241 10.4957C128.518 10.7944 128.897 10.9437 129.377 10.9437C129.75 10.9437 130.049 10.8637 130.273 10.7037C130.497 10.5437 130.684 10.2771 130.833 9.90374C130.876 9.79707 130.929 9.71707 130.993 9.66374C131.057 9.59974 131.142 9.56774 131.249 9.56774H132.961C133.068 9.56774 133.158 9.61041 133.233 9.69574C133.318 9.77041 133.356 9.86107 133.345 9.96774C133.334 10.1491 133.281 10.3624 133.185 10.6077C133.1 10.8531 132.956 11.1037 132.753 11.3597C132.561 11.6157 132.31 11.8557 132.001 12.0797C131.692 12.2931 131.313 12.4691 130.865 12.6077C130.428 12.7357 129.916 12.7997 129.329 12.7997ZM135.314 12.6397C135.197 12.6397 135.101 12.6024 135.026 12.5277C134.952 12.4531 134.914 12.3571 134.914 12.2397V1.67974C134.914 1.56241 134.952 1.46641 135.026 1.39174C135.101 1.31707 135.197 1.27974 135.314 1.27974H137.042C137.149 1.27974 137.24 1.31707 137.314 1.39174C137.389 1.46641 137.426 1.56241 137.426 1.67974V5.27974C137.714 4.93841 138.066 4.66641 138.482 4.46374C138.898 4.26107 139.4 4.15974 139.986 4.15974C140.616 4.15974 141.17 4.30374 141.65 4.59174C142.141 4.86907 142.525 5.27974 142.802 5.82374C143.08 6.35707 143.218 7.00774 143.218 7.77574V12.2397C143.218 12.3571 143.181 12.4531 143.106 12.5277C143.032 12.6024 142.936 12.6397 142.818 12.6397H141.074C140.968 12.6397 140.877 12.6024 140.802 12.5277C140.728 12.4531 140.69 12.3571 140.69 12.2397V7.87174C140.69 7.30641 140.552 6.86907 140.274 6.55974C139.997 6.23974 139.602 6.07974 139.09 6.07974C138.589 6.07974 138.184 6.23974 137.874 6.55974C137.576 6.86907 137.426 7.30641 137.426 7.87174V12.2397C137.426 12.3571 137.389 12.4531 137.314 12.5277C137.24 12.6024 137.149 12.6397 137.042 12.6397H135.314ZM145.517 12.6397C145.41 12.6397 145.32 12.6024 145.245 12.5277C145.17 12.4531 145.133 12.3571 145.133 12.2397V4.71974C145.133 4.60241 145.17 4.50641 145.245 4.43174C145.32 4.35707 145.41 4.31974 145.517 4.31974H147.085C147.202 4.31974 147.298 4.35707 147.373 4.43174C147.448 4.50641 147.485 4.60241 147.485 4.71974V5.34374C147.762 5.00241 148.12 4.71974 148.557 4.49574C148.994 4.27174 149.528 4.15974 150.157 4.15974C150.786 4.15974 151.336 4.30374 151.805 4.59174C152.285 4.86907 152.658 5.27974 152.925 5.82374C153.202 6.35707 153.341 7.00774 153.341 7.77574V12.2397C153.341 12.3571 153.298 12.4531 153.213 12.5277C153.138 12.6024 153.048 12.6397 152.941 12.6397H151.245C151.128 12.6397 151.032 12.6024 150.957 12.5277C150.882 12.4531 150.845 12.3571 150.845 12.2397V7.87174C150.845 7.30641 150.706 6.86907 150.429 6.55974C150.162 6.23974 149.768 6.07974 149.245 6.07974C148.744 6.07974 148.344 6.23974 148.045 6.55974C147.746 6.86907 147.597 7.30641 147.597 7.87174V12.2397C147.597 12.3571 147.56 12.4531 147.485 12.5277C147.41 12.6024 147.32 12.6397 147.213 12.6397H145.517ZM159.066 12.7997C158.181 12.7997 157.439 12.6557 156.842 12.3677C156.245 12.0691 155.786 11.6477 155.466 11.1037C155.157 10.5597 154.986 9.92507 154.954 9.19974C154.943 8.98641 154.938 8.74641 154.938 8.47974C154.938 8.20241 154.943 7.96241 154.954 7.75974C154.986 7.02374 155.167 6.38907 155.498 5.85574C155.829 5.31174 156.293 4.89574 156.89 4.60774C157.487 4.30907 158.213 4.15974 159.066 4.15974C159.909 4.15974 160.629 4.30907 161.226 4.60774C161.823 4.89574 162.287 5.31174 162.618 5.85574C162.949 6.38907 163.13 7.02374 163.162 7.75974C163.183 7.96241 163.194 8.20241 163.194 8.47974C163.194 8.74641 163.183 8.98641 163.162 9.19974C163.13 9.92507 162.954 10.5597 162.634 11.1037C162.325 11.6477 161.871 12.0691 161.274 12.3677C160.677 12.6557 159.941 12.7997 159.066 12.7997ZM159.066 11.0397C159.589 11.0397 159.983 10.8797 160.25 10.5597C160.517 10.2291 160.661 9.74907 160.682 9.11974C160.693 8.95974 160.698 8.74641 160.698 8.47974C160.698 8.21307 160.693 7.99974 160.682 7.83974C160.661 7.22107 160.517 6.74641 160.25 6.41574C159.983 6.08507 159.589 5.91974 159.066 5.91974C158.543 5.91974 158.143 6.08507 157.866 6.41574C157.599 6.74641 157.455 7.22107 157.434 7.83974C157.423 7.99974 157.418 8.21307 157.418 8.47974C157.418 8.74641 157.423 8.95974 157.434 9.11974C157.455 9.74907 157.599 10.2291 157.866 10.5597C158.143 10.8797 158.543 11.0397 159.066 11.0397ZM165.267 12.6397C165.15 12.6397 165.054 12.6024 164.979 12.5277C164.905 12.4531 164.867 12.3571 164.867 12.2397V1.67974C164.867 1.56241 164.905 1.46641 164.979 1.39174C165.054 1.31707 165.15 1.27974 165.267 1.27974H166.867C166.974 1.27974 167.065 1.31707 167.139 1.39174C167.214 1.46641 167.251 1.56241 167.251 1.67974V12.2397C167.251 12.3571 167.214 12.4531 167.139 12.5277C167.065 12.6024 166.974 12.6397 166.867 12.6397H165.267ZM173.082 12.7997C172.196 12.7997 171.455 12.6557 170.858 12.3677C170.26 12.0691 169.802 11.6477 169.482 11.1037C169.172 10.5597 169.002 9.92507 168.97 9.19974C168.959 8.98641 168.954 8.74641 168.954 8.47974C168.954 8.20241 168.959 7.96241 168.97 7.75974C169.002 7.02374 169.183 6.38907 169.514 5.85574C169.844 5.31174 170.308 4.89574 170.906 4.60774C171.503 4.30907 172.228 4.15974 173.082 4.15974C173.924 4.15974 174.644 4.30907 175.242 4.60774C175.839 4.89574 176.303 5.31174 176.634 5.85574C176.964 6.38907 177.146 7.02374 177.178 7.75974C177.199 7.96241 177.21 8.20241 177.21 8.47974C177.21 8.74641 177.199 8.98641 177.178 9.19974C177.146 9.92507 176.97 10.5597 176.65 11.1037C176.34 11.6477 175.887 12.0691 175.29 12.3677C174.692 12.6557 173.956 12.7997 173.082 12.7997ZM173.082 11.0397C173.604 11.0397 173.999 10.8797 174.266 10.5597C174.532 10.2291 174.676 9.74907 174.698 9.11974C174.708 8.95974 174.714 8.74641 174.714 8.47974C174.714 8.21307 174.708 7.99974 174.698 7.83974C174.676 7.22107 174.532 6.74641 174.266 6.41574C173.999 6.08507 173.604 5.91974 173.082 5.91974C172.559 5.91974 172.159 6.08507 171.882 6.41574C171.615 6.74641 171.471 7.22107 171.45 7.83974C171.439 7.99974 171.434 8.21307 171.434 8.47974C171.434 8.74641 171.439 8.95974 171.45 9.11974C171.471 9.74907 171.615 10.2291 171.882 10.5597C172.159 10.8797 172.559 11.0397 173.082 11.0397ZM182.787 16.1597C181.998 16.1597 181.342 16.0531 180.819 15.8397C180.296 15.6371 179.88 15.3864 179.571 15.0877C179.272 14.7997 179.059 14.5117 178.931 14.2237C178.803 13.9357 178.734 13.7117 178.723 13.5517C178.712 13.4344 178.75 13.3384 178.835 13.2637C178.92 13.1891 179.016 13.1517 179.123 13.1517H180.835C180.931 13.1517 181.011 13.1731 181.075 13.2157C181.15 13.2691 181.208 13.3544 181.251 13.4717C181.304 13.5997 181.379 13.7331 181.475 13.8717C181.571 14.0211 181.715 14.1437 181.907 14.2397C182.11 14.3357 182.376 14.3837 182.707 14.3837C183.08 14.3837 183.39 14.3304 183.635 14.2237C183.88 14.1171 184.062 13.9357 184.179 13.6797C184.307 13.4237 184.371 13.0771 184.371 12.6397V11.5677C184.115 11.8451 183.79 12.0744 183.395 12.2557C183.011 12.4371 182.536 12.5277 181.971 12.5277C181.416 12.5277 180.926 12.4424 180.499 12.2717C180.083 12.0904 179.736 11.8397 179.459 11.5197C179.182 11.1891 178.968 10.7944 178.819 10.3357C178.67 9.87707 178.584 9.35974 178.563 8.78374C178.552 8.49574 178.552 8.21307 178.563 7.93574C178.584 7.38107 178.67 6.87441 178.819 6.41574C178.968 5.95707 179.182 5.56241 179.459 5.23174C179.736 4.89041 180.083 4.62907 180.499 4.44774C180.926 4.25574 181.416 4.15974 181.971 4.15974C182.558 4.15974 183.059 4.27174 183.475 4.49574C183.891 4.71974 184.232 4.99707 184.499 5.32774V4.71974C184.499 4.61307 184.536 4.52241 184.611 4.44774C184.686 4.36241 184.776 4.31974 184.883 4.31974H186.451C186.558 4.31974 186.648 4.36241 186.723 4.44774C186.808 4.52241 186.851 4.61307 186.851 4.71974L186.867 12.4157C186.867 13.2157 186.712 13.8931 186.403 14.4477C186.094 15.0024 185.635 15.4237 185.027 15.7117C184.43 16.0104 183.683 16.1597 182.787 16.1597ZM182.707 10.6557C183.091 10.6557 183.4 10.5704 183.635 10.3997C183.88 10.2184 184.062 9.99441 184.179 9.72774C184.296 9.45041 184.36 9.16241 184.371 8.86374C184.382 8.74641 184.387 8.58107 184.387 8.36774C184.387 8.14374 184.382 7.97307 184.371 7.85574C184.36 7.55707 184.296 7.27441 184.179 7.00774C184.062 6.73041 183.88 6.50641 183.635 6.33574C183.4 6.16507 183.091 6.07974 182.707 6.07974C182.302 6.07974 181.982 6.17041 181.747 6.35174C181.512 6.52241 181.342 6.75174 181.235 7.03974C181.128 7.32774 181.064 7.64241 181.043 7.98374C181.032 8.23974 181.032 8.49041 181.043 8.73574C181.064 9.08774 181.128 9.40774 181.235 9.69574C181.342 9.98374 181.512 10.2184 181.747 10.3997C181.982 10.5704 182.302 10.6557 182.707 10.6557ZM190.403 15.6797C190.318 15.6797 190.238 15.6477 190.163 15.5837C190.099 15.5197 190.067 15.4397 190.067 15.3437C190.067 15.3224 190.072 15.2904 190.083 15.2477C190.094 15.2157 190.11 15.1731 190.131 15.1197L191.379 12.1277L188.307 4.87974C188.275 4.79441 188.259 4.72507 188.259 4.67174C188.27 4.57574 188.307 4.49574 188.371 4.43174C188.435 4.35707 188.515 4.31974 188.611 4.31974H190.163C190.302 4.31974 190.403 4.35707 190.467 4.43174C190.531 4.49574 190.579 4.56507 190.611 4.63974L192.595 9.59974L194.627 4.63974C194.67 4.55441 194.723 4.47974 194.787 4.41574C194.851 4.35174 194.952 4.31974 195.091 4.31974H196.611C196.707 4.31974 196.787 4.35707 196.851 4.43174C196.926 4.49574 196.963 4.57041 196.963 4.65574C196.963 4.70907 196.942 4.78374 196.899 4.87974L192.371 15.3597C192.339 15.4451 192.286 15.5197 192.211 15.5837C192.147 15.6477 192.046 15.6797 191.907 15.6797H190.403ZM205.039 12.6397C204.378 12.6397 203.813 12.5331 203.343 12.3197C202.874 12.0957 202.517 11.7544 202.271 11.2957C202.037 10.8371 201.919 10.2611 201.919 9.56774V6.20774H200.671C200.554 6.20774 200.458 6.17041 200.383 6.09574C200.309 6.02107 200.271 5.92507 200.271 5.80774V4.71974C200.271 4.60241 200.309 4.50641 200.383 4.43174C200.458 4.35707 200.554 4.31974 200.671 4.31974H201.919V1.67974C201.919 1.56241 201.957 1.46641 202.031 1.39174C202.117 1.31707 202.213 1.27974 202.319 1.27974H203.887C204.005 1.27974 204.101 1.31707 204.175 1.39174C204.25 1.46641 204.287 1.56241 204.287 1.67974V4.31974H206.287C206.394 4.31974 206.485 4.35707 206.559 4.43174C206.634 4.50641 206.671 4.60241 206.671 4.71974V5.80774C206.671 5.92507 206.634 6.02107 206.559 6.09574C206.485 6.17041 206.394 6.20774 206.287 6.20774H204.287V9.37574C204.287 9.78107 204.357 10.1011 204.495 10.3357C204.645 10.5597 204.901 10.6717 205.263 10.6717H206.431C206.538 10.6717 206.629 10.7091 206.703 10.7837C206.778 10.8584 206.815 10.9491 206.815 11.0557V12.2397C206.815 12.3571 206.778 12.4531 206.703 12.5277C206.629 12.6024 206.538 12.6397 206.431 12.6397H205.039ZM212.019 12.7997C211.134 12.7997 210.392 12.6557 209.795 12.3677C209.198 12.0691 208.739 11.6477 208.419 11.1037C208.11 10.5597 207.939 9.92507 207.907 9.19974C207.896 8.98641 207.891 8.74641 207.891 8.47974C207.891 8.20241 207.896 7.96241 207.907 7.75974C207.939 7.02374 208.12 6.38907 208.451 5.85574C208.782 5.31174 209.246 4.89574 209.843 4.60774C210.44 4.30907 211.166 4.15974 212.019 4.15974C212.862 4.15974 213.582 4.30907 214.179 4.60774C214.776 4.89574 215.24 5.31174 215.571 5.85574C215.902 6.38907 216.083 7.02374 216.115 7.75974C216.136 7.96241 216.147 8.20241 216.147 8.47974C216.147 8.74641 216.136 8.98641 216.115 9.19974C216.083 9.92507 215.907 10.5597 215.587 11.1037C215.278 11.6477 214.824 12.0691 214.227 12.3677C213.63 12.6557 212.894 12.7997 212.019 12.7997ZM212.019 11.0397C212.542 11.0397 212.936 10.8797 213.203 10.5597C213.47 10.2291 213.614 9.74907 213.635 9.11974C213.646 8.95974 213.651 8.74641 213.651 8.47974C213.651 8.21307 213.646 7.99974 213.635 7.83974C213.614 7.22107 213.47 6.74641 213.203 6.41574C212.936 6.08507 212.542 5.91974 212.019 5.91974C211.496 5.91974 211.096 6.08507 210.819 6.41574C210.552 6.74641 210.408 7.22107 210.387 7.83974C210.376 7.99974 210.371 8.21307 210.371 8.47974C210.371 8.74641 210.376 8.95974 210.387 9.11974C210.408 9.74907 210.552 10.2291 210.819 10.5597C211.096 10.8797 211.496 11.0397 212.019 11.0397ZM221.928 12.6397C221.81 12.6397 221.714 12.6024 221.64 12.5277C221.565 12.4531 221.528 12.3571 221.528 12.2397V1.83974C221.528 1.72241 221.565 1.62641 221.64 1.55174C221.714 1.47707 221.81 1.43974 221.928 1.43974H226.68C227.565 1.43974 228.29 1.56774 228.856 1.82374C229.421 2.07974 229.837 2.44241 230.104 2.91174C230.381 3.38107 230.52 3.93041 230.52 4.55974C230.52 4.95441 230.445 5.30107 230.296 5.59974C230.157 5.89841 229.981 6.14374 229.768 6.33574C229.565 6.52774 229.368 6.67174 229.176 6.76774C229.592 6.95974 229.954 7.27974 230.264 7.72774C230.584 8.16507 230.744 8.68774 230.744 9.29574C230.744 9.96774 230.594 10.5544 230.296 11.0557C229.997 11.5571 229.554 11.9464 228.968 12.2237C228.381 12.5011 227.666 12.6397 226.824 12.6397H221.928ZM224.072 10.7677H226.52C227.042 10.7677 227.437 10.6237 227.704 10.3357C227.97 10.0371 228.104 9.68507 228.104 9.27974C228.104 8.86374 227.965 8.51707 227.688 8.23974C227.421 7.95174 227.032 7.80774 226.52 7.80774H224.072V10.7677ZM224.072 5.96774H226.376C226.877 5.96774 227.25 5.84507 227.496 5.59974C227.752 5.34374 227.88 5.01841 227.88 4.62374C227.88 4.22907 227.752 3.91441 227.496 3.67974C227.25 3.43441 226.877 3.31174 226.376 3.31174H224.072V5.96774ZM235.533 12.7997C234.914 12.7997 234.365 12.6611 233.885 12.3837C233.415 12.0957 233.047 11.6851 232.781 11.1517C232.525 10.6077 232.397 9.95174 232.397 9.18374V4.71974C232.397 4.60241 232.434 4.50641 232.509 4.43174C232.583 4.35707 232.674 4.31974 232.781 4.31974H234.477C234.594 4.31974 234.69 4.35707 234.765 4.43174C234.839 4.50641 234.877 4.60241 234.877 4.71974V9.08774C234.877 10.2824 235.399 10.8797 236.445 10.8797C236.946 10.8797 237.341 10.7251 237.629 10.4157C237.927 10.0957 238.077 9.65307 238.077 9.08774V4.71974C238.077 4.60241 238.114 4.50641 238.189 4.43174C238.263 4.35707 238.359 4.31974 238.477 4.31974H240.173C240.279 4.31974 240.37 4.35707 240.445 4.43174C240.519 4.50641 240.557 4.60241 240.557 4.71974V12.2397C240.557 12.3571 240.519 12.4531 240.445 12.5277C240.37 12.6024 240.279 12.6397 240.173 12.6397H238.605C238.487 12.6397 238.391 12.6024 238.317 12.5277C238.242 12.4531 238.205 12.3571 238.205 12.2397V11.6157C237.927 11.9997 237.57 12.2931 237.133 12.4957C236.695 12.6984 236.162 12.7997 235.533 12.7997ZM242.955 12.6397C242.848 12.6397 242.757 12.6024 242.683 12.5277C242.608 12.4531 242.571 12.3571 242.571 12.2397V4.71974C242.571 4.60241 242.608 4.50641 242.683 4.43174C242.757 4.35707 242.848 4.31974 242.955 4.31974H244.555C244.672 4.31974 244.768 4.35707 244.843 4.43174C244.917 4.50641 244.955 4.60241 244.955 4.71974V12.2397C244.955 12.3571 244.917 12.4531 244.843 12.5277C244.768 12.6024 244.672 12.6397 244.555 12.6397H242.955ZM242.907 3.03974C242.8 3.03974 242.709 3.00241 242.635 2.92774C242.56 2.85307 242.523 2.75707 242.523 2.63974V1.35974C242.523 1.24241 242.56 1.14641 242.635 1.07174C242.709 0.986406 242.8 0.94374 242.907 0.94374H244.587C244.704 0.94374 244.8 0.986406 244.875 1.07174C244.96 1.14641 245.003 1.24241 245.003 1.35974V2.63974C245.003 2.75707 244.96 2.85307 244.875 2.92774C244.8 3.00241 244.704 3.03974 244.587 3.03974H242.907ZM247.361 12.6397C247.244 12.6397 247.148 12.6024 247.073 12.5277C246.998 12.4531 246.961 12.3571 246.961 12.2397V1.67974C246.961 1.56241 246.998 1.46641 247.073 1.39174C247.148 1.31707 247.244 1.27974 247.361 1.27974H248.961C249.068 1.27974 249.158 1.31707 249.233 1.39174C249.308 1.46641 249.345 1.56241 249.345 1.67974V12.2397C249.345 12.3571 249.308 12.4531 249.233 12.5277C249.158 12.6024 249.068 12.6397 248.961 12.6397H247.361ZM254.455 12.7997C253.922 12.7997 253.447 12.7144 253.031 12.5437C252.615 12.3624 252.263 12.1064 251.975 11.7757C251.687 11.4344 251.469 11.0344 251.319 10.5757C251.17 10.1064 251.079 9.58907 251.047 9.02374C251.037 8.82107 251.031 8.63974 251.031 8.47974C251.031 8.30907 251.037 8.12774 251.047 7.93574C251.069 7.38107 251.154 6.87441 251.303 6.41574C251.463 5.95707 251.682 5.56241 251.959 5.23174C252.247 4.89041 252.599 4.62907 253.015 4.44774C253.442 4.25574 253.922 4.15974 254.455 4.15974C255.01 4.15974 255.485 4.25574 255.879 4.44774C256.274 4.62907 256.599 4.86907 256.855 5.16774V1.67974C256.855 1.56241 256.893 1.46641 256.967 1.39174C257.042 1.31707 257.138 1.27974 257.255 1.27974H258.903C259.01 1.27974 259.101 1.31707 259.175 1.39174C259.25 1.46641 259.287 1.56241 259.287 1.67974V12.2397C259.287 12.3571 259.25 12.4531 259.175 12.5277C259.101 12.6024 259.01 12.6397 258.903 12.6397H257.367C257.261 12.6397 257.17 12.6024 257.095 12.5277C257.021 12.4531 256.983 12.3571 256.983 12.2397V11.6957C256.717 12.0157 256.381 12.2824 255.975 12.4957C255.57 12.6984 255.063 12.7997 254.455 12.7997ZM255.191 10.8797C255.586 10.8797 255.901 10.7891 256.135 10.6077C256.381 10.4264 256.557 10.1971 256.663 9.91974C256.781 9.64241 256.845 9.34374 256.855 9.02374C256.877 8.82107 256.887 8.61841 256.887 8.41574C256.887 8.21307 256.877 8.01574 256.855 7.82374C256.845 7.52507 256.781 7.24774 256.663 6.99174C256.546 6.72507 256.365 6.50641 256.119 6.33574C255.885 6.16507 255.575 6.07974 255.191 6.07974C254.786 6.07974 254.466 6.17041 254.231 6.35174C253.997 6.52241 253.826 6.75174 253.719 7.03974C253.623 7.32774 253.565 7.64241 253.543 7.98374C253.511 8.31441 253.511 8.64507 253.543 8.97574C253.565 9.31707 253.623 9.63174 253.719 9.91974C253.826 10.2077 253.997 10.4424 254.231 10.6237C254.466 10.7944 254.786 10.8797 255.191 10.8797ZM5.008 47.6397C4.34667 47.6397 3.78133 47.5331 3.312 47.3197C2.84267 47.0957 2.48533 46.7544 2.24 46.2957C2.00533 45.8371 1.888 45.2611 1.888 44.5677V41.2077H0.64C0.522667 41.2077 0.426667 41.1704 0.352 41.0957C0.277333 41.0211 0.24 40.9251 0.24 40.8077V39.7197C0.24 39.6024 0.277333 39.5064 0.352 39.4317C0.426667 39.3571 0.522667 39.3197 0.64 39.3197H1.888V36.6797C1.888 36.5624 1.92533 36.4664 2 36.3917C2.08533 36.3171 2.18133 36.2797 2.288 36.2797H3.856C3.97333 36.2797 4.06933 36.3171 4.144 36.3917C4.21867 36.4664 4.256 36.5624 4.256 36.6797V39.3197H6.256C6.36267 39.3197 6.45333 39.3571 6.528 39.4317C6.60267 39.5064 6.64 39.6024 6.64 39.7197V40.8077C6.64 40.9251 6.60267 41.0211 6.528 41.0957C6.45333 41.1704 6.36267 41.2077 6.256 41.2077H4.256V44.3757C4.256 44.7811 4.32533 45.1011 4.464 45.3357C4.61333 45.5597 4.86933 45.6717 5.232 45.6717H6.4C6.50667 45.6717 6.59733 45.7091 6.672 45.7837C6.74667 45.8584 6.784 45.9491 6.784 46.0557V47.2397C6.784 47.3571 6.74667 47.4531 6.672 47.5277C6.59733 47.6024 6.50667 47.6397 6.4 47.6397H5.008ZM8.57988 47.6397C8.46254 47.6397 8.36654 47.6024 8.29188 47.5277C8.21721 47.4531 8.17988 47.3571 8.17988 47.2397V36.6797C8.17988 36.5624 8.21721 36.4664 8.29188 36.3917C8.36654 36.3171 8.46254 36.2797 8.57988 36.2797H10.3079C10.4145 36.2797 10.5052 36.3171 10.5799 36.3917C10.6545 36.4664 10.6919 36.5624 10.6919 36.6797V40.2797C10.9799 39.9384 11.3319 39.6664 11.7479 39.4637C12.1639 39.2611 12.6652 39.1597 13.2519 39.1597C13.8812 39.1597 14.4359 39.3037 14.9159 39.5917C15.4065 39.8691 15.7905 40.2797 16.0679 40.8237C16.3452 41.3571 16.4839 42.0077 16.4839 42.7757V47.2397C16.4839 47.3571 16.4465 47.4531 16.3719 47.5277C16.2972 47.6024 16.2012 47.6397 16.0839 47.6397H14.3399C14.2332 47.6397 14.1425 47.6024 14.0679 47.5277C13.9932 47.4531 13.9559 47.3571 13.9559 47.2397V42.8717C13.9559 42.3064 13.8172 41.8691 13.5399 41.5597C13.2625 41.2397 12.8679 41.0797 12.3559 41.0797C11.8545 41.0797 11.4492 41.2397 11.1399 41.5597C10.8412 41.8691 10.6919 42.3064 10.6919 42.8717V47.2397C10.6919 47.3571 10.6545 47.4531 10.5799 47.5277C10.5052 47.6024 10.4145 47.6397 10.3079 47.6397H8.57988ZM22.1106 47.7997C20.884 47.7997 19.908 47.4584 19.1826 46.7757C18.468 46.0931 18.0893 45.1011 18.0466 43.7997C18.0466 43.7144 18.0466 43.6024 18.0466 43.4637C18.0466 43.3144 18.0466 43.1971 18.0466 43.1117C18.0893 42.2904 18.276 41.5864 18.6066 40.9997C18.9373 40.4024 19.4013 39.9491 19.9986 39.6397C20.596 39.3197 21.2946 39.1597 22.0946 39.1597C22.9906 39.1597 23.7373 39.3464 24.3346 39.7197C24.9426 40.0824 25.396 40.5837 25.6946 41.2237C26.004 41.8531 26.1586 42.5784 26.1586 43.3997V43.7677C26.1586 43.8744 26.116 43.9651 26.0306 44.0397C25.956 44.1144 25.8653 44.1517 25.7586 44.1517H20.5266C20.5266 44.1624 20.5266 44.1837 20.5266 44.2157C20.5266 44.2371 20.5266 44.2584 20.5266 44.2797C20.5373 44.6211 20.6013 44.9357 20.7186 45.2237C20.8466 45.5011 21.0226 45.7251 21.2466 45.8957C21.4813 46.0664 21.7586 46.1517 22.0786 46.1517C22.3453 46.1517 22.564 46.1144 22.7346 46.0397C22.9053 45.9651 23.044 45.8744 23.1506 45.7677C23.268 45.6611 23.3533 45.5704 23.4066 45.4957C23.5026 45.3891 23.5773 45.3251 23.6306 45.3037C23.6946 45.2717 23.7906 45.2557 23.9186 45.2557H25.5826C25.6893 45.2557 25.7746 45.2877 25.8386 45.3517C25.9133 45.4051 25.9453 45.4851 25.9346 45.5917C25.924 45.7624 25.8333 45.9757 25.6626 46.2317C25.5026 46.4771 25.2626 46.7224 24.9426 46.9677C24.6226 47.2024 24.2226 47.3997 23.7426 47.5597C23.2733 47.7197 22.7293 47.7997 22.1106 47.7997ZM20.5266 42.6957H23.6626V42.6637C23.6626 42.2797 23.5986 41.9491 23.4706 41.6717C23.3533 41.3837 23.1773 41.1597 22.9426 40.9997C22.708 40.8397 22.4253 40.7597 22.0946 40.7597C21.764 40.7597 21.4813 40.8397 21.2466 40.9997C21.012 41.1597 20.8306 41.3837 20.7026 41.6717C20.5853 41.9491 20.5266 42.2797 20.5266 42.6637V42.6957ZM31.8653 47.6397C31.7479 47.6397 31.6519 47.6024 31.5773 47.5277C31.5026 47.4531 31.4653 47.3571 31.4653 47.2397V36.8397C31.4653 36.7224 31.5026 36.6264 31.5773 36.5517C31.6519 36.4771 31.7479 36.4397 31.8653 36.4397H35.8813C36.9479 36.4397 37.8386 36.6104 38.5533 36.9517C39.2679 37.2824 39.8119 37.7731 40.1853 38.4237C40.5693 39.0637 40.7719 39.8584 40.7933 40.8077C40.8039 41.2771 40.8093 41.6877 40.8093 42.0397C40.8093 42.3917 40.8039 42.7971 40.7933 43.2557C40.7613 44.2477 40.5639 45.0691 40.2013 45.7197C39.8386 46.3704 39.3053 46.8557 38.6013 47.1757C37.8973 47.4851 37.0173 47.6397 35.9613 47.6397H31.8653ZM34.0093 45.5757H35.8813C36.4146 45.5757 36.8519 45.4957 37.1933 45.3357C37.5346 45.1757 37.7853 44.9251 37.9453 44.5837C38.1159 44.2317 38.2066 43.7784 38.2173 43.2237C38.2279 42.9144 38.2333 42.6371 38.2333 42.3917C38.2439 42.1464 38.2439 41.9011 38.2333 41.6557C38.2333 41.4104 38.2279 41.1384 38.2173 40.8397C38.1959 40.0397 37.9879 39.4531 37.5933 39.0797C37.2093 38.6957 36.6119 38.5037 35.8013 38.5037H34.0093V45.5757ZM43.017 47.6397C42.9103 47.6397 42.8197 47.6024 42.745 47.5277C42.6703 47.4531 42.633 47.3571 42.633 47.2397V39.7197C42.633 39.6024 42.6703 39.5064 42.745 39.4317C42.8197 39.3571 42.9103 39.3197 43.017 39.3197H44.617C44.7343 39.3197 44.8303 39.3571 44.905 39.4317C44.9797 39.5064 45.017 39.6024 45.017 39.7197V47.2397C45.017 47.3571 44.9797 47.4531 44.905 47.5277C44.8303 47.6024 44.7343 47.6397 44.617 47.6397H43.017ZM42.969 38.0397C42.8623 38.0397 42.7717 38.0024 42.697 37.9277C42.6223 37.8531 42.585 37.7571 42.585 37.6397V36.3597C42.585 36.2424 42.6223 36.1464 42.697 36.0717C42.7717 35.9864 42.8623 35.9437 42.969 35.9437H44.649C44.7663 35.9437 44.8623 35.9864 44.937 36.0717C45.0223 36.1464 45.065 36.2424 45.065 36.3597V37.6397C45.065 37.7571 45.0223 37.8531 44.937 37.9277C44.8623 38.0024 44.7663 38.0397 44.649 38.0397H42.969ZM50.9276 51.1597C50.1383 51.1597 49.4823 51.0531 48.9596 50.8397C48.437 50.6371 48.021 50.3864 47.7116 50.0877C47.413 49.7997 47.1996 49.5117 47.0716 49.2237C46.9436 48.9357 46.8743 48.7117 46.8636 48.5517C46.853 48.4344 46.8903 48.3384 46.9756 48.2637C47.061 48.1891 47.157 48.1517 47.2636 48.1517H48.9756C49.0716 48.1517 49.1516 48.1731 49.2156 48.2157C49.2903 48.2691 49.349 48.3544 49.3916 48.4717C49.445 48.5997 49.5196 48.7331 49.6156 48.8717C49.7116 49.0211 49.8556 49.1437 50.0476 49.2397C50.2503 49.3357 50.517 49.3837 50.8476 49.3837C51.221 49.3837 51.5303 49.3304 51.7756 49.2237C52.021 49.1171 52.2023 48.9357 52.3196 48.6797C52.4476 48.4237 52.5116 48.0771 52.5116 47.6397V46.5677C52.2556 46.8451 51.9303 47.0744 51.5356 47.2557C51.1516 47.4371 50.677 47.5277 50.1116 47.5277C49.557 47.5277 49.0663 47.4424 48.6396 47.2717C48.2236 47.0904 47.877 46.8397 47.5996 46.5197C47.3223 46.1891 47.109 45.7944 46.9596 45.3357C46.8103 44.8771 46.725 44.3597 46.7036 43.7837C46.693 43.4957 46.693 43.2131 46.7036 42.9357C46.725 42.3811 46.8103 41.8744 46.9596 41.4157C47.109 40.9571 47.3223 40.5624 47.5996 40.2317C47.877 39.8904 48.2236 39.6291 48.6396 39.4477C49.0663 39.2557 49.557 39.1597 50.1116 39.1597C50.6983 39.1597 51.1996 39.2717 51.6156 39.4957C52.0316 39.7197 52.373 39.9971 52.6396 40.3277V39.7197C52.6396 39.6131 52.677 39.5224 52.7516 39.4477C52.8263 39.3624 52.917 39.3197 53.0236 39.3197H54.5916C54.6983 39.3197 54.789 39.3624 54.8636 39.4477C54.949 39.5224 54.9916 39.6131 54.9916 39.7197L55.0076 47.4157C55.0076 48.2157 54.853 48.8931 54.5436 49.4477C54.2343 50.0024 53.7756 50.4237 53.1676 50.7117C52.5703 51.0104 51.8236 51.1597 50.9276 51.1597ZM50.8476 45.6557C51.2316 45.6557 51.541 45.5704 51.7756 45.3997C52.021 45.2184 52.2023 44.9944 52.3196 44.7277C52.437 44.4504 52.501 44.1624 52.5116 43.8637C52.5223 43.7464 52.5276 43.5811 52.5276 43.3677C52.5276 43.1437 52.5223 42.9731 52.5116 42.8557C52.501 42.5571 52.437 42.2744 52.3196 42.0077C52.2023 41.7304 52.021 41.5064 51.7756 41.3357C51.541 41.1651 51.2316 41.0797 50.8476 41.0797C50.4423 41.0797 50.1223 41.1704 49.8876 41.3517C49.653 41.5224 49.4823 41.7517 49.3756 42.0397C49.269 42.3277 49.205 42.6424 49.1836 42.9837C49.173 43.2397 49.173 43.4904 49.1836 43.7357C49.205 44.0877 49.269 44.4077 49.3756 44.6957C49.4823 44.9837 49.653 45.2184 49.8876 45.3997C50.1223 45.5704 50.4423 45.6557 50.8476 45.6557ZM57.4076 47.6397C57.301 47.6397 57.2103 47.6024 57.1356 47.5277C57.061 47.4531 57.0236 47.3571 57.0236 47.2397V39.7197C57.0236 39.6024 57.061 39.5064 57.1356 39.4317C57.2103 39.3571 57.301 39.3197 57.4076 39.3197H59.0076C59.125 39.3197 59.221 39.3571 59.2956 39.4317C59.3703 39.5064 59.4076 39.6024 59.4076 39.7197V47.2397C59.4076 47.3571 59.3703 47.4531 59.2956 47.5277C59.221 47.6024 59.125 47.6397 59.0076 47.6397H57.4076ZM57.3596 38.0397C57.253 38.0397 57.1623 38.0024 57.0876 37.9277C57.013 37.8531 56.9756 37.7571 56.9756 37.6397V36.3597C56.9756 36.2424 57.013 36.1464 57.0876 36.0717C57.1623 35.9864 57.253 35.9437 57.3596 35.9437H59.0396C59.157 35.9437 59.253 35.9864 59.3276 36.0717C59.413 36.1464 59.4556 36.2424 59.4556 36.3597V37.6397C59.4556 37.7571 59.413 37.8531 59.3276 37.9277C59.253 38.0024 59.157 38.0397 59.0396 38.0397H57.3596ZM65.4143 47.6397C64.7529 47.6397 64.1876 47.5331 63.7183 47.3197C63.2489 47.0957 62.8916 46.7544 62.6463 46.2957C62.4116 45.8371 62.2943 45.2611 62.2943 44.5677V41.2077H61.0463C60.9289 41.2077 60.8329 41.1704 60.7583 41.0957C60.6836 41.0211 60.6463 40.9251 60.6463 40.8077V39.7197C60.6463 39.6024 60.6836 39.5064 60.7583 39.4317C60.8329 39.3571 60.9289 39.3197 61.0463 39.3197H62.2943V36.6797C62.2943 36.5624 62.3316 36.4664 62.4062 36.3917C62.4916 36.3171 62.5876 36.2797 62.6943 36.2797H64.2623C64.3796 36.2797 64.4756 36.3171 64.5503 36.3917C64.6249 36.4664 64.6623 36.5624 64.6623 36.6797V39.3197H66.6623C66.7689 39.3197 66.8596 39.3571 66.9343 39.4317C67.0089 39.5064 67.0463 39.6024 67.0463 39.7197V40.8077C67.0463 40.9251 67.0089 41.0211 66.9343 41.0957C66.8596 41.1704 66.7689 41.2077 66.6623 41.2077H64.6623V44.3757C64.6623 44.7811 64.7316 45.1011 64.8703 45.3357C65.0196 45.5597 65.2756 45.6717 65.6383 45.6717H66.8063C66.9129 45.6717 67.0036 45.7091 67.0783 45.7837C67.1529 45.8584 67.1903 45.9491 67.1903 46.0557V47.2397C67.1903 47.3571 67.1529 47.4531 67.0783 47.5277C67.0036 47.6024 66.9129 47.6397 66.8063 47.6397H65.4143ZM71.0341 47.7997C70.4688 47.7997 69.9621 47.6931 69.5141 47.4797C69.0661 47.2557 68.7088 46.9571 68.4421 46.5837C68.1755 46.2104 68.0421 45.7944 68.0421 45.3357C68.0421 44.5784 68.3461 43.9811 68.9541 43.5437C69.5728 43.1064 70.3835 42.8077 71.3861 42.6477L73.4821 42.3437V42.0557C73.4821 41.6397 73.3861 41.3197 73.1941 41.0957C73.0021 40.8717 72.6661 40.7597 72.1861 40.7597C71.8341 40.7597 71.5515 40.8291 71.3381 40.9677C71.1248 41.1064 70.9595 41.2877 70.8421 41.5117C70.7568 41.6504 70.6341 41.7197 70.4741 41.7197H68.9541C68.8368 41.7197 68.7461 41.6877 68.6821 41.6237C68.6181 41.5491 68.5915 41.4637 68.6021 41.3677C68.6021 41.1864 68.6715 40.9731 68.8101 40.7277C68.9488 40.4824 69.1621 40.2424 69.4501 40.0077C69.7381 39.7624 70.1061 39.5597 70.5541 39.3997C71.0021 39.2397 71.5515 39.1597 72.2021 39.1597C72.8741 39.1597 73.4501 39.2397 73.9301 39.3997C74.4101 39.5597 74.7941 39.7837 75.0821 40.0717C75.3701 40.3597 75.5835 40.6957 75.7221 41.0797C75.8608 41.4531 75.9301 41.8584 75.9301 42.2957V47.2397C75.9301 47.3571 75.8928 47.4531 75.8181 47.5277C75.7435 47.6024 75.6475 47.6397 75.5301 47.6397H73.9621C73.8555 47.6397 73.7648 47.6024 73.6901 47.5277C73.6155 47.4531 73.5781 47.3571 73.5781 47.2397V46.6477C73.4395 46.8504 73.2528 47.0424 73.0181 47.2237C72.7835 47.3944 72.5008 47.5331 72.1701 47.6397C71.8501 47.7464 71.4715 47.7997 71.0341 47.7997ZM71.6741 46.1357C72.0261 46.1357 72.3408 46.0611 72.6181 45.9117C72.8955 45.7624 73.1141 45.5331 73.2741 45.2237C73.4341 44.9144 73.5141 44.5251 73.5141 44.0557V43.7837L72.0261 44.0237C71.4501 44.1197 71.0288 44.2637 70.7621 44.4557C70.4955 44.6477 70.3621 44.8824 70.3621 45.1597C70.3621 45.3624 70.4208 45.5384 70.5381 45.6877C70.6661 45.8371 70.8315 45.9491 71.0341 46.0237C71.2368 46.0984 71.4501 46.1357 71.6741 46.1357ZM78.2674 47.6397C78.15 47.6397 78.054 47.6024 77.9794 47.5277C77.9047 47.4531 77.8674 47.3571 77.8674 47.2397V36.6797C77.8674 36.5624 77.9047 36.4664 77.9794 36.3917C78.054 36.3171 78.15 36.2797 78.2674 36.2797H79.8674C79.974 36.2797 80.0647 36.3171 80.1394 36.3917C80.214 36.4664 80.2514 36.5624 80.2514 36.6797V47.2397C80.2514 47.3571 80.214 47.4531 80.1394 47.5277C80.0647 47.6024 79.974 47.6397 79.8674 47.6397H78.2674ZM90.4289 47.7997C89.4262 47.7997 88.5729 47.6344 87.8689 47.3037C87.1755 46.9624 86.6369 46.4717 86.2529 45.8317C85.8689 45.1811 85.6555 44.3917 85.6129 43.4637C85.6022 43.0264 85.5969 42.5571 85.5969 42.0557C85.5969 41.5544 85.6022 41.0744 85.6129 40.6157C85.6555 39.6984 85.8689 38.9197 86.2529 38.2797C86.6475 37.6291 87.1969 37.1331 87.9009 36.7917C88.6049 36.4504 89.4475 36.2797 90.4289 36.2797C91.1435 36.2797 91.7942 36.3704 92.3809 36.5517C92.9675 36.7331 93.4742 36.9944 93.9009 37.3357C94.3275 37.6771 94.6582 38.0771 94.8929 38.5357C95.1275 38.9944 95.2555 39.5064 95.2769 40.0717C95.2769 40.1677 95.2395 40.2477 95.1649 40.3117C95.1009 40.3757 95.0209 40.4077 94.9249 40.4077H93.1009C92.9729 40.4077 92.8715 40.3757 92.7969 40.3117C92.7222 40.2477 92.6635 40.1411 92.6209 39.9917C92.4609 39.3624 92.1942 38.9304 91.8209 38.6957C91.4475 38.4611 90.9835 38.3437 90.4289 38.3437C89.7675 38.3437 89.2449 38.5251 88.8609 38.8877C88.4769 39.2504 88.2689 39.8531 88.2369 40.6957C88.2049 41.5704 88.2049 42.4664 88.2369 43.3837C88.2689 44.2264 88.4769 44.8291 88.8609 45.1917C89.2449 45.5544 89.7675 45.7357 90.4289 45.7357C90.9835 45.7357 91.4475 45.6184 91.8209 45.3837C92.2049 45.1384 92.4715 44.7064 92.6209 44.0877C92.6635 43.9277 92.7222 43.8211 92.7969 43.7677C92.8715 43.7037 92.9729 43.6717 93.1009 43.6717H94.9249C95.0209 43.6717 95.1009 43.7037 95.1649 43.7677C95.2395 43.8317 95.2769 43.9117 95.2769 44.0077C95.2555 44.5731 95.1275 45.0851 94.8929 45.5437C94.6582 46.0024 94.3275 46.4024 93.9009 46.7437C93.4742 47.0851 92.9675 47.3464 92.3809 47.5277C91.7942 47.7091 91.1435 47.7997 90.4289 47.7997ZM99.3466 47.7997C98.7813 47.7997 98.2746 47.6931 97.8266 47.4797C97.3786 47.2557 97.0213 46.9571 96.7546 46.5837C96.488 46.2104 96.3546 45.7944 96.3546 45.3357C96.3546 44.5784 96.6586 43.9811 97.2666 43.5437C97.8853 43.1064 98.696 42.8077 99.6986 42.6477L101.795 42.3437V42.0557C101.795 41.6397 101.699 41.3197 101.507 41.0957C101.315 40.8717 100.979 40.7597 100.499 40.7597C100.147 40.7597 99.864 40.8291 99.6506 40.9677C99.4373 41.1064 99.272 41.2877 99.1546 41.5117C99.0693 41.6504 98.9466 41.7197 98.7866 41.7197H97.2666C97.1493 41.7197 97.0586 41.6877 96.9946 41.6237C96.9306 41.5491 96.904 41.4637 96.9146 41.3677C96.9146 41.1864 96.984 40.9731 97.1226 40.7277C97.2613 40.4824 97.4746 40.2424 97.7626 40.0077C98.0506 39.7624 98.4186 39.5597 98.8666 39.3997C99.3146 39.2397 99.864 39.1597 100.515 39.1597C101.187 39.1597 101.763 39.2397 102.243 39.3997C102.723 39.5597 103.107 39.7837 103.395 40.0717C103.683 40.3597 103.896 40.6957 104.035 41.0797C104.173 41.4531 104.243 41.8584 104.243 42.2957V47.2397C104.243 47.3571 104.205 47.4531 104.131 47.5277C104.056 47.6024 103.96 47.6397 103.843 47.6397H102.275C102.168 47.6397 102.077 47.6024 102.003 47.5277C101.928 47.4531 101.891 47.3571 101.891 47.2397V46.6477C101.752 46.8504 101.565 47.0424 101.331 47.2237C101.096 47.3944 100.813 47.5331 100.483 47.6397C100.163 47.7464 99.784 47.7997 99.3466 47.7997ZM99.9866 46.1357C100.339 46.1357 100.653 46.0611 100.931 45.9117C101.208 45.7624 101.427 45.5331 101.587 45.2237C101.747 44.9144 101.827 44.5251 101.827 44.0557V43.7837L100.339 44.0237C99.7626 44.1197 99.3413 44.2637 99.0746 44.4557C98.808 44.6477 98.6746 44.8824 98.6746 45.1597C98.6746 45.3624 98.7333 45.5384 98.8506 45.6877C98.9786 45.8371 99.144 45.9491 99.3466 46.0237C99.5493 46.0984 99.7626 46.1357 99.9866 46.1357ZM106.58 50.6797C106.463 50.6797 106.367 50.6424 106.292 50.5677C106.217 50.4931 106.18 50.3971 106.18 50.2797V39.7197C106.18 39.6024 106.217 39.5064 106.292 39.4317C106.367 39.3571 106.463 39.3197 106.58 39.3197H108.1C108.217 39.3197 108.313 39.3571 108.388 39.4317C108.463 39.5064 108.5 39.6024 108.5 39.7197V40.3277C108.756 39.9864 109.087 39.7091 109.492 39.4957C109.897 39.2717 110.404 39.1597 111.012 39.1597C111.567 39.1597 112.047 39.2504 112.452 39.4317C112.868 39.6024 113.215 39.8531 113.492 40.1837C113.78 40.5037 113.999 40.8931 114.148 41.3517C114.308 41.8104 114.399 42.3277 114.42 42.9037C114.431 43.1064 114.436 43.2984 114.436 43.4797C114.436 43.6611 114.431 43.8584 114.42 44.0717C114.409 44.6157 114.324 45.1171 114.164 45.5757C114.015 46.0344 113.796 46.4291 113.508 46.7597C113.22 47.0904 112.868 47.3464 112.452 47.5277C112.047 47.7091 111.567 47.7997 111.012 47.7997C110.468 47.7997 109.993 47.7037 109.588 47.5117C109.193 47.3091 108.868 47.0371 108.612 46.6957V50.2797C108.612 50.3971 108.575 50.4931 108.5 50.5677C108.425 50.6424 108.335 50.6797 108.228 50.6797H106.58ZM110.292 45.8797C110.697 45.8797 111.017 45.7944 111.252 45.6237C111.487 45.4424 111.652 45.2077 111.748 44.9197C111.855 44.6317 111.919 44.3171 111.94 43.9757C111.961 43.6451 111.961 43.3144 111.94 42.9837C111.919 42.6424 111.855 42.3277 111.748 42.0397C111.652 41.7517 111.487 41.5224 111.252 41.3517C111.017 41.1704 110.697 41.0797 110.292 41.0797C109.897 41.0797 109.577 41.1704 109.332 41.3517C109.087 41.5331 108.911 41.7624 108.804 42.0397C108.697 42.3171 108.633 42.6157 108.612 42.9357C108.601 43.1277 108.596 43.3251 108.596 43.5277C108.596 43.7304 108.601 43.9331 108.612 44.1357C108.623 44.4344 108.687 44.7171 108.804 44.9837C108.932 45.2397 109.113 45.4531 109.348 45.6237C109.593 45.7944 109.908 45.8797 110.292 45.8797ZM118.581 47.7997C118.016 47.7997 117.509 47.6931 117.061 47.4797C116.613 47.2557 116.256 46.9571 115.989 46.5837C115.722 46.2104 115.589 45.7944 115.589 45.3357C115.589 44.5784 115.893 43.9811 116.501 43.5437C117.12 43.1064 117.93 42.8077 118.933 42.6477L121.029 42.3437V42.0557C121.029 41.6397 120.933 41.3197 120.741 41.0957C120.549 40.8717 120.213 40.7597 119.733 40.7597C119.381 40.7597 119.098 40.8291 118.885 40.9677C118.672 41.1064 118.506 41.2877 118.389 41.5117C118.304 41.6504 118.181 41.7197 118.021 41.7197H116.501C116.384 41.7197 116.293 41.6877 116.229 41.6237C116.165 41.5491 116.138 41.4637 116.149 41.3677C116.149 41.1864 116.218 40.9731 116.357 40.7277C116.496 40.4824 116.709 40.2424 116.997 40.0077C117.285 39.7624 117.653 39.5597 118.101 39.3997C118.549 39.2397 119.098 39.1597 119.749 39.1597C120.421 39.1597 120.997 39.2397 121.477 39.3997C121.957 39.5597 122.341 39.7837 122.629 40.0717C122.917 40.3597 123.13 40.6957 123.269 41.0797C123.408 41.4531 123.477 41.8584 123.477 42.2957V47.2397C123.477 47.3571 123.44 47.4531 123.365 47.5277C123.29 47.6024 123.194 47.6397 123.077 47.6397H121.509C121.402 47.6397 121.312 47.6024 121.237 47.5277C121.162 47.4531 121.125 47.3571 121.125 47.2397V46.6477C120.986 46.8504 120.8 47.0424 120.565 47.2237C120.33 47.3944 120.048 47.5331 119.717 47.6397C119.397 47.7464 119.018 47.7997 118.581 47.7997ZM119.221 46.1357C119.573 46.1357 119.888 46.0611 120.165 45.9117C120.442 45.7624 120.661 45.5331 120.821 45.2237C120.981 44.9144 121.061 44.5251 121.061 44.0557V43.7837L119.573 44.0237C118.997 44.1197 118.576 44.2637 118.309 44.4557C118.042 44.6477 117.909 44.8824 117.909 45.1597C117.909 45.3624 117.968 45.5384 118.085 45.6877C118.213 45.8371 118.378 45.9491 118.581 46.0237C118.784 46.0984 118.997 46.1357 119.221 46.1357ZM130.246 47.7997C129.638 47.7997 129.132 47.6984 128.726 47.4957C128.321 47.2824 127.99 47.0157 127.734 46.6957V47.2397C127.734 47.3571 127.697 47.4531 127.622 47.5277C127.548 47.6024 127.452 47.6397 127.334 47.6397H125.814C125.697 47.6397 125.601 47.6024 125.526 47.5277C125.452 47.4531 125.414 47.3571 125.414 47.2397V36.6797C125.414 36.5624 125.452 36.4664 125.526 36.3917C125.601 36.3171 125.697 36.2797 125.814 36.2797H127.462C127.569 36.2797 127.66 36.3171 127.734 36.3917C127.809 36.4664 127.846 36.5624 127.846 36.6797V40.1677C128.113 39.8691 128.444 39.6291 128.838 39.4477C129.233 39.2557 129.702 39.1597 130.246 39.1597C130.801 39.1597 131.281 39.2557 131.686 39.4477C132.102 39.6291 132.454 39.8904 132.742 40.2317C133.03 40.5624 133.249 40.9571 133.398 41.4157C133.558 41.8744 133.644 42.3811 133.654 42.9357C133.665 43.1277 133.67 43.3091 133.67 43.4797C133.67 43.6397 133.665 43.8211 133.654 44.0237C133.633 44.5891 133.542 45.1064 133.382 45.5757C133.233 46.0344 133.014 46.4344 132.726 46.7757C132.449 47.1064 132.102 47.3624 131.686 47.5437C131.281 47.7144 130.801 47.7997 130.246 47.7997ZM129.526 45.8797C129.932 45.8797 130.252 45.7944 130.486 45.6237C130.721 45.4424 130.886 45.2077 130.982 44.9197C131.089 44.6317 131.153 44.3171 131.174 43.9757C131.196 43.6451 131.196 43.3144 131.174 42.9837C131.153 42.6424 131.089 42.3277 130.982 42.0397C130.886 41.7517 130.721 41.5224 130.486 41.3517C130.252 41.1704 129.932 41.0797 129.526 41.0797C129.142 41.0797 128.828 41.1651 128.582 41.3357C128.348 41.5064 128.166 41.7251 128.038 41.9917C127.921 42.2477 127.857 42.5251 127.846 42.8237C127.836 43.0157 127.83 43.2131 127.83 43.4157C127.83 43.6184 127.836 43.8211 127.846 44.0237C127.868 44.3437 127.932 44.6424 128.038 44.9197C128.145 45.1971 128.321 45.4264 128.566 45.6077C128.812 45.7891 129.132 45.8797 129.526 45.8797ZM135.751 47.6397C135.645 47.6397 135.554 47.6024 135.479 47.5277C135.405 47.4531 135.367 47.3571 135.367 47.2397V39.7197C135.367 39.6024 135.405 39.5064 135.479 39.4317C135.554 39.3571 135.645 39.3197 135.751 39.3197H137.351C137.469 39.3197 137.565 39.3571 137.639 39.4317C137.714 39.5064 137.751 39.6024 137.751 39.7197V47.2397C137.751 47.3571 137.714 47.4531 137.639 47.5277C137.565 47.6024 137.469 47.6397 137.351 47.6397H135.751ZM135.703 38.0397C135.597 38.0397 135.506 38.0024 135.431 37.9277C135.357 37.8531 135.319 37.7571 135.319 37.6397V36.3597C135.319 36.2424 135.357 36.1464 135.431 36.0717C135.506 35.9864 135.597 35.9437 135.703 35.9437H137.383C137.501 35.9437 137.597 35.9864 137.671 36.0717C137.757 36.1464 137.799 36.2424 137.799 36.3597V37.6397C137.799 37.7571 137.757 37.8531 137.671 37.9277C137.597 38.0024 137.501 38.0397 137.383 38.0397H135.703ZM140.158 47.6397C140.041 47.6397 139.945 47.6024 139.87 47.5277C139.795 47.4531 139.758 47.3571 139.758 47.2397V36.6797C139.758 36.5624 139.795 36.4664 139.87 36.3917C139.945 36.3171 140.041 36.2797 140.158 36.2797H141.758C141.865 36.2797 141.955 36.3171 142.03 36.3917C142.105 36.4664 142.142 36.5624 142.142 36.6797V47.2397C142.142 47.3571 142.105 47.4531 142.03 47.5277C141.955 47.6024 141.865 47.6397 141.758 47.6397H140.158ZM144.986 47.6397C144.879 47.6397 144.788 47.6024 144.714 47.5277C144.639 47.4531 144.602 47.3571 144.602 47.2397V39.7197C144.602 39.6024 144.639 39.5064 144.714 39.4317C144.788 39.3571 144.879 39.3197 144.986 39.3197H146.586C146.703 39.3197 146.799 39.3571 146.874 39.4317C146.948 39.5064 146.986 39.6024 146.986 39.7197V47.2397C146.986 47.3571 146.948 47.4531 146.874 47.5277C146.799 47.6024 146.703 47.6397 146.586 47.6397H144.986ZM144.938 38.0397C144.831 38.0397 144.74 38.0024 144.666 37.9277C144.591 37.8531 144.554 37.7571 144.554 37.6397V36.3597C144.554 36.2424 144.591 36.1464 144.666 36.0717C144.74 35.9864 144.831 35.9437 144.938 35.9437H146.618C146.735 35.9437 146.831 35.9864 146.906 36.0717C146.991 36.1464 147.034 36.2424 147.034 36.3597V37.6397C147.034 37.7571 146.991 37.8531 146.906 37.9277C146.831 38.0024 146.735 38.0397 146.618 38.0397H144.938ZM152.992 47.6397C152.331 47.6397 151.766 47.5331 151.296 47.3197C150.827 47.0957 150.47 46.7544 150.224 46.2957C149.99 45.8371 149.872 45.2611 149.872 44.5677V41.2077H148.624C148.507 41.2077 148.411 41.1704 148.336 41.0957C148.262 41.0211 148.224 40.9251 148.224 40.8077V39.7197C148.224 39.6024 148.262 39.5064 148.336 39.4317C148.411 39.3571 148.507 39.3197 148.624 39.3197H149.872V36.6797C149.872 36.5624 149.91 36.4664 149.984 36.3917C150.07 36.3171 150.166 36.2797 150.272 36.2797H151.84C151.958 36.2797 152.054 36.3171 152.128 36.3917C152.203 36.4664 152.24 36.5624 152.24 36.6797V39.3197H154.24C154.347 39.3197 154.438 39.3571 154.512 39.4317C154.587 39.5064 154.624 39.6024 154.624 39.7197V40.8077C154.624 40.9251 154.587 41.0211 154.512 41.0957C154.438 41.1704 154.347 41.2077 154.24 41.2077H152.24V44.3757C152.24 44.7811 152.31 45.1011 152.448 45.3357C152.598 45.5597 152.854 45.6717 153.216 45.6717H154.384C154.491 45.6717 154.582 45.7091 154.656 45.7837C154.731 45.8584 154.768 45.9491 154.768 46.0557V47.2397C154.768 47.3571 154.731 47.4531 154.656 47.5277C154.582 47.6024 154.491 47.6397 154.384 47.6397H152.992ZM156.548 47.6397C156.442 47.6397 156.351 47.6024 156.276 47.5277C156.202 47.4531 156.164 47.3571 156.164 47.2397V39.7197C156.164 39.6024 156.202 39.5064 156.276 39.4317C156.351 39.3571 156.442 39.3197 156.548 39.3197H158.148C158.266 39.3197 158.362 39.3571 158.436 39.4317C158.511 39.5064 158.548 39.6024 158.548 39.7197V47.2397C158.548 47.3571 158.511 47.4531 158.436 47.5277C158.362 47.6024 158.266 47.6397 158.148 47.6397H156.548ZM156.5 38.0397C156.394 38.0397 156.303 38.0024 156.228 37.9277C156.154 37.8531 156.116 37.7571 156.116 37.6397V36.3597C156.116 36.2424 156.154 36.1464 156.228 36.0717C156.303 35.9864 156.394 35.9437 156.5 35.9437H158.18C158.298 35.9437 158.394 35.9864 158.468 36.0717C158.554 36.1464 158.596 36.2424 158.596 36.3597V37.6397C158.596 37.7571 158.554 37.8531 158.468 37.9277C158.394 38.0024 158.298 38.0397 158.18 38.0397H156.5ZM164.329 47.7997C163.103 47.7997 162.127 47.4584 161.401 46.7757C160.687 46.0931 160.308 45.1011 160.265 43.7997C160.265 43.7144 160.265 43.6024 160.265 43.4637C160.265 43.3144 160.265 43.1971 160.265 43.1117C160.308 42.2904 160.495 41.5864 160.825 40.9997C161.156 40.4024 161.62 39.9491 162.217 39.6397C162.815 39.3197 163.513 39.1597 164.313 39.1597C165.209 39.1597 165.956 39.3464 166.553 39.7197C167.161 40.0824 167.615 40.5837 167.913 41.2237C168.223 41.8531 168.377 42.5784 168.377 43.3997V43.7677C168.377 43.8744 168.335 43.9651 168.249 44.0397C168.175 44.1144 168.084 44.1517 167.977 44.1517H162.745C162.745 44.1624 162.745 44.1837 162.745 44.2157C162.745 44.2371 162.745 44.2584 162.745 44.2797C162.756 44.6211 162.82 44.9357 162.937 45.2237C163.065 45.5011 163.241 45.7251 163.465 45.8957C163.7 46.0664 163.977 46.1517 164.297 46.1517C164.564 46.1517 164.783 46.1144 164.953 46.0397C165.124 45.9651 165.263 45.8744 165.369 45.7677C165.487 45.6611 165.572 45.5704 165.625 45.4957C165.721 45.3891 165.796 45.3251 165.849 45.3037C165.913 45.2717 166.009 45.2557 166.137 45.2557H167.801C167.908 45.2557 167.993 45.2877 168.057 45.3517C168.132 45.4051 168.164 45.4851 168.153 45.5917C168.143 45.7624 168.052 45.9757 167.881 46.2317C167.721 46.4771 167.481 46.7224 167.161 46.9677C166.841 47.2024 166.441 47.3997 165.961 47.5597C165.492 47.7197 164.948 47.7997 164.329 47.7997ZM162.745 42.6957H165.881V42.6637C165.881 42.2797 165.817 41.9491 165.689 41.6717C165.572 41.3837 165.396 41.1597 165.161 40.9997C164.927 40.8397 164.644 40.7597 164.313 40.7597C163.983 40.7597 163.7 40.8397 163.465 40.9997C163.231 41.1597 163.049 41.3837 162.921 41.6717C162.804 41.9491 162.745 42.2797 162.745 42.6637V42.6957ZM173.257 47.7997C172.595 47.7997 172.025 47.7251 171.545 47.5757C171.075 47.4157 170.691 47.2237 170.393 46.9997C170.105 46.7757 169.886 46.5517 169.737 46.3277C169.598 46.0931 169.523 45.8957 169.513 45.7357C169.502 45.6184 169.539 45.5224 169.625 45.4477C169.71 45.3731 169.795 45.3357 169.881 45.3357H171.433C171.465 45.3357 171.497 45.3411 171.529 45.3517C171.561 45.3624 171.593 45.3891 171.625 45.4317C171.763 45.5277 171.907 45.6397 172.057 45.7677C172.206 45.8851 172.377 45.9864 172.569 46.0717C172.771 46.1571 173.022 46.1997 173.321 46.1997C173.673 46.1997 173.971 46.1304 174.217 45.9917C174.462 45.8424 174.585 45.6344 174.585 45.3677C174.585 45.1757 174.526 45.0157 174.409 44.8877C174.302 44.7597 174.094 44.6424 173.785 44.5357C173.475 44.4291 173.017 44.3117 172.409 44.1837C171.833 44.0557 171.342 43.8851 170.937 43.6717C170.531 43.4584 170.227 43.1917 170.025 42.8717C169.822 42.5411 169.721 42.1464 169.721 41.6877C169.721 41.2717 169.849 40.8717 170.105 40.4877C170.371 40.1037 170.761 39.7891 171.273 39.5437C171.785 39.2877 172.425 39.1597 173.193 39.1597C173.779 39.1597 174.291 39.2344 174.729 39.3837C175.177 39.5224 175.55 39.7037 175.849 39.9277C176.147 40.1411 176.371 40.3651 176.521 40.5997C176.681 40.8237 176.766 41.0211 176.777 41.1917C176.787 41.2984 176.755 41.3891 176.681 41.4637C176.606 41.5384 176.521 41.5757 176.425 41.5757H175.001C174.947 41.5757 174.899 41.5704 174.857 41.5597C174.814 41.5384 174.777 41.5117 174.745 41.4797C174.617 41.3944 174.483 41.2984 174.345 41.1917C174.217 41.0744 174.062 40.9731 173.881 40.8877C173.699 40.8024 173.465 40.7597 173.177 40.7597C172.825 40.7597 172.553 40.8397 172.361 40.9997C172.179 41.1491 172.089 41.3411 172.089 41.5757C172.089 41.7251 172.137 41.8637 172.233 41.9917C172.329 42.1197 172.526 42.2371 172.825 42.3437C173.123 42.4504 173.577 42.5624 174.185 42.6797C174.91 42.8077 175.486 42.9997 175.913 43.2557C176.339 43.5117 176.643 43.8104 176.825 44.1517C177.017 44.4824 177.113 44.8397 177.113 45.2237C177.113 45.7251 176.963 46.1731 176.665 46.5677C176.366 46.9517 175.929 47.2557 175.353 47.4797C174.787 47.6931 174.089 47.7997 173.257 47.7997ZM185.988 47.7997C185.103 47.7997 184.361 47.6557 183.764 47.3677C183.167 47.0691 182.708 46.6477 182.388 46.1037C182.079 45.5597 181.908 44.9251 181.876 44.1997C181.865 43.9864 181.86 43.7464 181.86 43.4797C181.86 43.2024 181.865 42.9624 181.876 42.7597C181.908 42.0237 182.089 41.3891 182.42 40.8557C182.751 40.3117 183.215 39.8957 183.812 39.6077C184.409 39.3091 185.135 39.1597 185.988 39.1597C186.831 39.1597 187.551 39.3091 188.148 39.6077C188.745 39.8957 189.209 40.3117 189.54 40.8557C189.871 41.3891 190.052 42.0237 190.084 42.7597C190.105 42.9624 190.116 43.2024 190.116 43.4797C190.116 43.7464 190.105 43.9864 190.084 44.1997C190.052 44.9251 189.876 45.5597 189.556 46.1037C189.247 46.6477 188.793 47.0691 188.196 47.3677C187.599 47.6557 186.863 47.7997 185.988 47.7997ZM185.988 46.0397C186.511 46.0397 186.905 45.8797 187.172 45.5597C187.439 45.2291 187.583 44.7491 187.604 44.1197C187.615 43.9597 187.62 43.7464 187.62 43.4797C187.62 43.2131 187.615 42.9997 187.604 42.8397C187.583 42.2211 187.439 41.7464 187.172 41.4157C186.905 41.0851 186.511 40.9197 185.988 40.9197C185.465 40.9197 185.065 41.0851 184.788 41.4157C184.521 41.7464 184.377 42.2211 184.356 42.8397C184.345 42.9997 184.34 43.2131 184.34 43.4797C184.34 43.7464 184.345 43.9597 184.356 44.1197C184.377 44.7491 184.521 45.2291 184.788 45.5597C185.065 45.8797 185.465 46.0397 185.988 46.0397ZM193.023 47.6397C192.906 47.6397 192.81 47.6024 192.735 47.5277C192.66 47.4531 192.623 47.3571 192.623 47.2397V41.2077H191.375C191.258 41.2077 191.162 41.1704 191.087 41.0957C191.012 41.0211 190.975 40.9251 190.975 40.8077V39.7197C190.975 39.6024 191.012 39.5064 191.087 39.4317C191.162 39.3571 191.258 39.3197 191.375 39.3197H192.623V38.7437C192.623 38.0611 192.751 37.5011 193.007 37.0637C193.263 36.6264 193.636 36.3064 194.127 36.1037C194.618 35.9011 195.22 35.7997 195.935 35.7997H197.103C197.22 35.7997 197.316 35.8371 197.391 35.9117C197.466 35.9864 197.503 36.0824 197.503 36.1997V37.2877C197.503 37.4051 197.466 37.5011 197.391 37.5757C197.316 37.6504 197.22 37.6877 197.103 37.6877H196.031C195.636 37.6877 195.359 37.7837 195.199 37.9757C195.05 38.1677 194.975 38.4504 194.975 38.8237V39.3197H196.943C197.06 39.3197 197.156 39.3571 197.231 39.4317C197.306 39.5064 197.343 39.6024 197.343 39.7197V40.8077C197.343 40.9251 197.306 41.0211 197.231 41.0957C197.156 41.1704 197.06 41.2077 196.943 41.2077H194.975V47.2397C194.975 47.3571 194.938 47.4531 194.863 47.5277C194.788 47.6024 194.698 47.6397 194.591 47.6397H193.023ZM1.584 82.6397C1.46667 82.6397 1.37067 82.6024 1.296 82.5277C1.22133 82.4531 1.184 82.3571 1.184 82.2397V71.8397C1.184 71.7224 1.22133 71.6264 1.296 71.5517C1.37067 71.4771 1.46667 71.4397 1.584 71.4397H3.392C3.50933 71.4397 3.60533 71.4771 3.68 71.5517C3.75467 71.6264 3.792 71.7224 3.792 71.8397V82.2397C3.792 82.3571 3.75467 82.4531 3.68 82.5277C3.60533 82.6024 3.50933 82.6397 3.392 82.6397H1.584ZM6.36075 82.6397C6.25408 82.6397 6.16342 82.6024 6.08875 82.5277C6.01408 82.4531 5.97675 82.3571 5.97675 82.2397V74.7197C5.97675 74.6024 6.01408 74.5064 6.08875 74.4317C6.16342 74.3571 6.25408 74.3197 6.36075 74.3197H7.92875C8.04608 74.3197 8.14208 74.3571 8.21675 74.4317C8.29142 74.5064 8.32875 74.6024 8.32875 74.7197V75.3437C8.60608 75.0024 8.96342 74.7197 9.40075 74.4957C9.83808 74.2717 10.3714 74.1597 11.0008 74.1597C11.6301 74.1597 12.1794 74.3037 12.6488 74.5917C13.1288 74.8691 13.5021 75.2797 13.7688 75.8237C14.0461 76.3571 14.1848 77.0077 14.1848 77.7757V82.2397C14.1848 82.3571 14.1421 82.4531 14.0568 82.5277C13.9821 82.6024 13.8914 82.6397 13.7847 82.6397H12.0888C11.9714 82.6397 11.8754 82.6024 11.8008 82.5277C11.7261 82.4531 11.6888 82.3571 11.6888 82.2397V77.8717C11.6888 77.3064 11.5501 76.8691 11.2728 76.5597C11.0061 76.2397 10.6114 76.0797 10.0888 76.0797C9.58742 76.0797 9.18742 76.2397 8.88875 76.5597C8.59008 76.8691 8.44075 77.3064 8.44075 77.8717V82.2397C8.44075 82.3571 8.40342 82.4531 8.32875 82.5277C8.25408 82.6024 8.16342 82.6397 8.05675 82.6397H6.36075ZM19.1898 82.7997C18.6564 82.7997 18.1818 82.7144 17.7658 82.5437C17.3498 82.3624 16.9978 82.1064 16.7098 81.7757C16.4218 81.4344 16.2031 81.0344 16.0538 80.5757C15.9044 80.1064 15.8138 79.5891 15.7818 79.0237C15.7711 78.8211 15.7658 78.6397 15.7658 78.4797C15.7658 78.3091 15.7711 78.1277 15.7818 77.9357C15.8031 77.3811 15.8884 76.8744 16.0378 76.4157C16.1978 75.9571 16.4164 75.5624 16.6938 75.2317C16.9818 74.8904 17.3338 74.6291 17.7498 74.4477C18.1764 74.2557 18.6564 74.1597 19.1898 74.1597C19.7444 74.1597 20.2191 74.2557 20.6138 74.4477C21.0084 74.6291 21.3338 74.8691 21.5898 75.1677V71.6797C21.5898 71.5624 21.6271 71.4664 21.7018 71.3917C21.7764 71.3171 21.8724 71.2797 21.9898 71.2797H23.6378C23.7444 71.2797 23.8351 71.3171 23.9097 71.3917C23.9844 71.4664 24.0218 71.5624 24.0218 71.6797V82.2397C24.0218 82.3571 23.9844 82.4531 23.9097 82.5277C23.8351 82.6024 23.7444 82.6397 23.6378 82.6397H22.1018C21.9951 82.6397 21.9044 82.6024 21.8298 82.5277C21.7551 82.4531 21.7178 82.3571 21.7178 82.2397V81.6957C21.4511 82.0157 21.1151 82.2824 20.7098 82.4957C20.3044 82.6984 19.7978 82.7997 19.1898 82.7997ZM19.9258 80.8797C20.3204 80.8797 20.6351 80.7891 20.8698 80.6077C21.1151 80.4264 21.2911 80.1971 21.3978 79.9197C21.5151 79.6424 21.5791 79.3437 21.5898 79.0237C21.6111 78.8211 21.6218 78.6184 21.6218 78.4157C21.6218 78.2131 21.6111 78.0157 21.5898 77.8237C21.5791 77.5251 21.5151 77.2477 21.3978 76.9917C21.2804 76.7251 21.0991 76.5064 20.8538 76.3357C20.6191 76.1651 20.3098 76.0797 19.9258 76.0797C19.5204 76.0797 19.2004 76.1704 18.9658 76.3517C18.7311 76.5224 18.5604 76.7517 18.4538 77.0397C18.3578 77.3277 18.2991 77.6424 18.2778 77.9837C18.2458 78.3144 18.2458 78.6451 18.2778 78.9757C18.2991 79.3171 18.3578 79.6317 18.4538 79.9197C18.5604 80.2077 18.7311 80.4424 18.9658 80.6237C19.2004 80.7944 19.5204 80.8797 19.9258 80.8797ZM29.8629 82.7997C28.9775 82.7997 28.2362 82.6557 27.6389 82.3677C27.0415 82.0691 26.5829 81.6477 26.2629 81.1037C25.9535 80.5597 25.7829 79.9251 25.7509 79.1997C25.7402 78.9864 25.7349 78.7464 25.7349 78.4797C25.7349 78.2024 25.7402 77.9624 25.7509 77.7597C25.7829 77.0237 25.9642 76.3891 26.2949 75.8557C26.6255 75.3117 27.0895 74.8957 27.6869 74.6077C28.2842 74.3091 29.0095 74.1597 29.8629 74.1597C30.7055 74.1597 31.4255 74.3091 32.0229 74.6077C32.6202 74.8957 33.0842 75.3117 33.4149 75.8557C33.7455 76.3891 33.9269 77.0237 33.9589 77.7597C33.9802 77.9624 33.9909 78.2024 33.9909 78.4797C33.9909 78.7464 33.9802 78.9864 33.9589 79.1997C33.9269 79.9251 33.7509 80.5597 33.4309 81.1037C33.1215 81.6477 32.6682 82.0691 32.0709 82.3677C31.4735 82.6557 30.7375 82.7997 29.8629 82.7997ZM29.8629 81.0397C30.3855 81.0397 30.7802 80.8797 31.0469 80.5597C31.3135 80.2291 31.4575 79.7491 31.4789 79.1197C31.4895 78.9597 31.4949 78.7464 31.4949 78.4797C31.4949 78.2131 31.4895 77.9997 31.4789 77.8397C31.4575 77.2211 31.3135 76.7464 31.0469 76.4157C30.7802 76.0851 30.3855 75.9197 29.8629 75.9197C29.3402 75.9197 28.9402 76.0851 28.6629 76.4157C28.3962 76.7464 28.2522 77.2211 28.2309 77.8397C28.2202 77.9997 28.2149 78.2131 28.2149 78.4797C28.2149 78.7464 28.2202 78.9597 28.2309 79.1197C28.2522 79.7491 28.3962 80.2291 28.6629 80.5597C28.9402 80.8797 29.3402 81.0397 29.8629 81.0397ZM36.0483 82.6397C35.9416 82.6397 35.8509 82.6024 35.7763 82.5277C35.7016 82.4531 35.6643 82.3571 35.6643 82.2397V74.7197C35.6643 74.6024 35.7016 74.5064 35.7763 74.4317C35.8509 74.3571 35.9416 74.3197 36.0483 74.3197H37.6163C37.7336 74.3197 37.8296 74.3571 37.9043 74.4317C37.9789 74.5064 38.0163 74.6024 38.0163 74.7197V75.3437C38.2936 75.0024 38.6509 74.7197 39.0883 74.4957C39.5256 74.2717 40.0589 74.1597 40.6883 74.1597C41.3176 74.1597 41.8669 74.3037 42.3363 74.5917C42.8163 74.8691 43.1896 75.2797 43.4563 75.8237C43.7336 76.3571 43.8723 77.0077 43.8723 77.7757V82.2397C43.8723 82.3571 43.8296 82.4531 43.7443 82.5277C43.6696 82.6024 43.5789 82.6397 43.4722 82.6397H41.7763C41.6589 82.6397 41.5629 82.6024 41.4883 82.5277C41.4136 82.4531 41.3763 82.3571 41.3763 82.2397V77.8717C41.3763 77.3064 41.2376 76.8691 40.9603 76.5597C40.6936 76.2397 40.2989 76.0797 39.7763 76.0797C39.2749 76.0797 38.8749 76.2397 38.5763 76.5597C38.2776 76.8691 38.1283 77.3064 38.1283 77.8717V82.2397C38.1283 82.3571 38.0909 82.4531 38.0163 82.5277C37.9416 82.6024 37.8509 82.6397 37.7443 82.6397H36.0483ZM49.5013 82.7997C48.2746 82.7997 47.2986 82.4584 46.5733 81.7757C45.8586 81.0931 45.4799 80.1011 45.4373 78.7997C45.4373 78.7144 45.4373 78.6024 45.4373 78.4637C45.4373 78.3144 45.4373 78.1971 45.4373 78.1117C45.4799 77.2904 45.6666 76.5864 45.9973 75.9997C46.3279 75.4024 46.7919 74.9491 47.3893 74.6397C47.9866 74.3197 48.6853 74.1597 49.4852 74.1597C50.3813 74.1597 51.1279 74.3464 51.7253 74.7197C52.3333 75.0824 52.7866 75.5837 53.0853 76.2237C53.3946 76.8531 53.5493 77.5784 53.5493 78.3997V78.7677C53.5493 78.8744 53.5066 78.9651 53.4213 79.0397C53.3466 79.1144 53.2559 79.1517 53.1493 79.1517H47.9173C47.9173 79.1624 47.9173 79.1837 47.9173 79.2157C47.9173 79.2371 47.9173 79.2584 47.9173 79.2797C47.9279 79.6211 47.9919 79.9357 48.1093 80.2237C48.2373 80.5011 48.4133 80.7251 48.6373 80.8957C48.8719 81.0664 49.1493 81.1517 49.4693 81.1517C49.7359 81.1517 49.9546 81.1144 50.1253 81.0397C50.2959 80.9651 50.4346 80.8744 50.5413 80.7677C50.6586 80.6611 50.7439 80.5704 50.7973 80.4957C50.8933 80.3891 50.9679 80.3251 51.0213 80.3037C51.0853 80.2717 51.1813 80.2557 51.3093 80.2557H52.9733C53.0799 80.2557 53.1653 80.2877 53.2292 80.3517C53.3039 80.4051 53.3359 80.4851 53.3253 80.5917C53.3146 80.7624 53.2239 80.9757 53.0533 81.2317C52.8933 81.4771 52.6533 81.7224 52.3333 81.9677C52.0133 82.2024 51.6133 82.3997 51.1333 82.5597C50.6639 82.7197 50.1199 82.7997 49.5013 82.7997ZM47.9173 77.6957H51.0533V77.6637C51.0533 77.2797 50.9893 76.9491 50.8613 76.6717C50.7439 76.3837 50.5679 76.1597 50.3333 75.9997C50.0986 75.8397 49.8159 75.7597 49.4852 75.7597C49.1546 75.7597 48.8719 75.8397 48.6373 75.9997C48.4026 76.1597 48.2213 76.3837 48.0933 76.6717C47.9759 76.9491 47.9173 77.2797 47.9173 77.6637V77.6957ZM58.4286 82.7997C57.7673 82.7997 57.1966 82.7251 56.7166 82.5757C56.2473 82.4157 55.8633 82.2237 55.5646 81.9997C55.2766 81.7757 55.058 81.5517 54.9086 81.3277C54.77 81.0931 54.6953 80.8957 54.6846 80.7357C54.674 80.6184 54.7113 80.5224 54.7966 80.4477C54.882 80.3731 54.9673 80.3357 55.0526 80.3357H56.6046C56.6366 80.3357 56.6686 80.3411 56.7006 80.3517C56.7326 80.3624 56.7646 80.3891 56.7966 80.4317C56.9353 80.5277 57.0793 80.6397 57.2286 80.7677C57.378 80.8851 57.5486 80.9864 57.7406 81.0717C57.9433 81.1571 58.194 81.1997 58.4926 81.1997C58.8446 81.1997 59.1433 81.1304 59.3886 80.9917C59.634 80.8424 59.7566 80.6344 59.7566 80.3677C59.7566 80.1757 59.698 80.0157 59.5806 79.8877C59.474 79.7597 59.266 79.6424 58.9566 79.5357C58.6473 79.4291 58.1886 79.3117 57.5806 79.1837C57.0046 79.0557 56.514 78.8851 56.1086 78.6717C55.7033 78.4584 55.3993 78.1917 55.1966 77.8717C54.994 77.5411 54.8926 77.1464 54.8926 76.6877C54.8926 76.2717 55.0206 75.8717 55.2766 75.4877C55.5433 75.1037 55.9326 74.7891 56.4446 74.5437C56.9566 74.2877 57.5966 74.1597 58.3646 74.1597C58.9513 74.1597 59.4633 74.2344 59.9006 74.3837C60.3486 74.5224 60.722 74.7037 61.0206 74.9277C61.3193 75.1411 61.5433 75.3651 61.6926 75.5997C61.8526 75.8237 61.938 76.0211 61.9486 76.1917C61.9593 76.2984 61.9273 76.3891 61.8526 76.4637C61.778 76.5384 61.6926 76.5757 61.5966 76.5757H60.1726C60.1193 76.5757 60.0713 76.5704 60.0286 76.5597C59.986 76.5384 59.9486 76.5117 59.9166 76.4797C59.7886 76.3944 59.6553 76.2984 59.5166 76.1917C59.3886 76.0744 59.234 75.9731 59.0526 75.8877C58.8713 75.8024 58.6366 75.7597 58.3486 75.7597C57.9966 75.7597 57.7246 75.8397 57.5326 75.9997C57.3513 76.1491 57.2606 76.3411 57.2606 76.5757C57.2606 76.7251 57.3086 76.8637 57.4046 76.9917C57.5006 77.1197 57.698 77.2371 57.9966 77.3437C58.2953 77.4504 58.7486 77.5624 59.3566 77.6797C60.082 77.8077 60.658 77.9997 61.0846 78.2557C61.5113 78.5117 61.8153 78.8104 61.9966 79.1517C62.1886 79.4824 62.2846 79.8397 62.2846 80.2237C62.2846 80.7251 62.1353 81.1731 61.8366 81.5677C61.538 81.9517 61.1006 82.2557 60.5246 82.4797C59.9593 82.6931 59.2606 82.7997 58.4286 82.7997ZM64.2045 82.6397C64.0978 82.6397 64.0072 82.6024 63.9325 82.5277C63.8578 82.4531 63.8205 82.3571 63.8205 82.2397V74.7197C63.8205 74.6024 63.8578 74.5064 63.9325 74.4317C64.0072 74.3571 64.0978 74.3197 64.2045 74.3197H65.8045C65.9218 74.3197 66.0178 74.3571 66.0925 74.4317C66.1672 74.5064 66.2045 74.6024 66.2045 74.7197V82.2397C66.2045 82.3571 66.1672 82.4531 66.0925 82.5277C66.0178 82.6024 65.9218 82.6397 65.8045 82.6397H64.2045ZM64.1565 73.0397C64.0498 73.0397 63.9592 73.0024 63.8845 72.9277C63.8098 72.8531 63.7725 72.7571 63.7725 72.6397V71.3597C63.7725 71.2424 63.8098 71.1464 63.8845 71.0717C63.9592 70.9864 64.0498 70.9437 64.1565 70.9437H65.8365C65.9538 70.9437 66.0498 70.9864 66.1245 71.0717C66.2098 71.1464 66.2525 71.2424 66.2525 71.3597V72.6397C66.2525 72.7571 66.2098 72.8531 66.1245 72.9277C66.0498 73.0024 65.9538 73.0397 65.8365 73.0397H64.1565ZM70.6591 82.7997C70.0938 82.7997 69.5871 82.6931 69.1391 82.4797C68.6911 82.2557 68.3338 81.9571 68.0671 81.5837C67.8005 81.2104 67.6671 80.7944 67.6671 80.3357C67.6671 79.5784 67.9711 78.9811 68.5791 78.5437C69.1978 78.1064 70.0085 77.8077 71.0111 77.6477L73.1071 77.3437V77.0557C73.1071 76.6397 73.0111 76.3197 72.8191 76.0957C72.6271 75.8717 72.2911 75.7597 71.8111 75.7597C71.4591 75.7597 71.1765 75.8291 70.9631 75.9677C70.7498 76.1064 70.5845 76.2877 70.4671 76.5117C70.3818 76.6504 70.2591 76.7197 70.0991 76.7197H68.5791C68.4618 76.7197 68.3711 76.6877 68.3071 76.6237C68.2431 76.5491 68.2165 76.4637 68.2271 76.3677C68.2271 76.1864 68.2965 75.9731 68.4351 75.7277C68.5738 75.4824 68.7871 75.2424 69.0751 75.0077C69.3631 74.7624 69.7311 74.5597 70.1791 74.3997C70.6271 74.2397 71.1765 74.1597 71.8271 74.1597C72.4991 74.1597 73.0751 74.2397 73.5551 74.3997C74.0351 74.5597 74.4191 74.7837 74.7071 75.0717C74.9951 75.3597 75.2085 75.6957 75.3471 76.0797C75.4858 76.4531 75.5551 76.8584 75.5551 77.2957V82.2397C75.5551 82.3571 75.5178 82.4531 75.4431 82.5277C75.3685 82.6024 75.2725 82.6397 75.1551 82.6397H73.5871C73.4805 82.6397 73.3898 82.6024 73.3151 82.5277C73.2405 82.4531 73.2031 82.3571 73.2031 82.2397V81.6477C73.0645 81.8504 72.8778 82.0424 72.6431 82.2237C72.4085 82.3944 72.1258 82.5331 71.7951 82.6397C71.4751 82.7464 71.0965 82.7997 70.6591 82.7997ZM71.2991 81.1357C71.6511 81.1357 71.9658 81.0611 72.2431 80.9117C72.5205 80.7624 72.7391 80.5331 72.8991 80.2237C73.0591 79.9144 73.1391 79.5251 73.1391 79.0557V78.7837L71.6511 79.0237C71.0751 79.1197 70.6538 79.2637 70.3871 79.4557C70.1205 79.6477 69.9871 79.8824 69.9871 80.1597C69.9871 80.3624 70.0458 80.5384 70.1631 80.6877C70.2911 80.8371 70.4565 80.9491 70.6591 81.0237C70.8618 81.0984 71.0751 81.1357 71.2991 81.1357ZM77.597 75.3277C77.4583 75.3277 77.357 75.2904 77.293 75.2157C77.2397 75.1304 77.2023 75.0344 77.181 74.9277L76.845 71.7277C76.8343 71.5891 76.861 71.4824 76.925 71.4077C76.9997 71.3224 77.0957 71.2797 77.213 71.2797H78.813C78.941 71.2797 79.037 71.3224 79.101 71.4077C79.1757 71.4824 79.2023 71.5891 79.181 71.7277L78.845 74.9277C78.8343 75.0344 78.797 75.1304 78.733 75.2157C78.6797 75.2904 78.5783 75.3277 78.429 75.3277H77.597ZM83.8818 82.7997C83.2204 82.7997 82.6498 82.7251 82.1698 82.5757C81.7004 82.4157 81.3164 82.2237 81.0178 81.9997C80.7298 81.7757 80.5111 81.5517 80.3618 81.3277C80.2231 81.0931 80.1484 80.8957 80.1378 80.7357C80.1271 80.6184 80.1644 80.5224 80.2498 80.4477C80.3351 80.3731 80.4204 80.3357 80.5058 80.3357H82.0578C82.0898 80.3357 82.1218 80.3411 82.1538 80.3517C82.1858 80.3624 82.2178 80.3891 82.2498 80.4317C82.3884 80.5277 82.5324 80.6397 82.6818 80.7677C82.8311 80.8851 83.0018 80.9864 83.1938 81.0717C83.3964 81.1571 83.6471 81.1997 83.9458 81.1997C84.2978 81.1997 84.5964 81.1304 84.8418 80.9917C85.0871 80.8424 85.2098 80.6344 85.2098 80.3677C85.2098 80.1757 85.1511 80.0157 85.0338 79.8877C84.9271 79.7597 84.7191 79.6424 84.4098 79.5357C84.1004 79.4291 83.6418 79.3117 83.0338 79.1837C82.4578 79.0557 81.9671 78.8851 81.5618 78.6717C81.1564 78.4584 80.8524 78.1917 80.6497 77.8717C80.4471 77.5411 80.3458 77.1464 80.3458 76.6877C80.3458 76.2717 80.4738 75.8717 80.7298 75.4877C80.9964 75.1037 81.3858 74.7891 81.8978 74.5437C82.4098 74.2877 83.0498 74.1597 83.8177 74.1597C84.4044 74.1597 84.9164 74.2344 85.3538 74.3837C85.8018 74.5224 86.1751 74.7037 86.4738 74.9277C86.7724 75.1411 86.9964 75.3651 87.1458 75.5997C87.3058 75.8237 87.3911 76.0211 87.4018 76.1917C87.4124 76.2984 87.3804 76.3891 87.3058 76.4637C87.2311 76.5384 87.1458 76.5757 87.0498 76.5757H85.6258C85.5724 76.5757 85.5244 76.5704 85.4818 76.5597C85.4391 76.5384 85.4018 76.5117 85.3698 76.4797C85.2418 76.3944 85.1084 76.2984 84.9698 76.1917C84.8418 76.0744 84.6871 75.9731 84.5058 75.8877C84.3244 75.8024 84.0898 75.7597 83.8018 75.7597C83.4498 75.7597 83.1778 75.8397 82.9858 75.9997C82.8044 76.1491 82.7138 76.3411 82.7138 76.5757C82.7138 76.7251 82.7618 76.8637 82.8578 76.9917C82.9538 77.1197 83.1511 77.2371 83.4498 77.3437C83.7484 77.4504 84.2018 77.5624 84.8098 77.6797C85.5351 77.8077 86.1111 77.9997 86.5378 78.2557C86.9644 78.5117 87.2684 78.8104 87.4498 79.1517C87.6418 79.4824 87.7378 79.8397 87.7378 80.2237C87.7378 80.7251 87.5884 81.1731 87.2898 81.5677C86.9911 81.9517 86.5538 82.2557 85.9778 82.4797C85.4124 82.6931 84.7138 82.7997 83.8818 82.7997ZM97.4769 82.7997C96.4742 82.7997 95.6155 82.6344 94.9009 82.3037C94.1969 81.9624 93.6475 81.4717 93.2529 80.8317C92.8689 80.1811 92.6609 79.3971 92.6289 78.4797C92.6182 78.0211 92.6129 77.5304 92.6129 77.0077C92.6129 76.4851 92.6182 75.9891 92.6289 75.5197C92.6609 74.6237 92.8689 73.8611 93.2529 73.2317C93.6475 72.6024 94.2022 72.1224 94.9169 71.7917C95.6422 71.4504 96.4955 71.2797 97.4769 71.2797C98.2662 71.2797 98.9595 71.3811 99.5569 71.5837C100.154 71.7864 100.656 72.0531 101.061 72.3837C101.466 72.7037 101.776 73.0557 101.989 73.4397C102.202 73.8237 102.314 74.1917 102.325 74.5437C102.325 74.6397 102.293 74.7251 102.229 74.7997C102.165 74.8637 102.08 74.8957 101.973 74.8957H99.9889C99.8822 74.8957 99.7969 74.8744 99.7329 74.8317C99.6795 74.7891 99.6315 74.7251 99.5889 74.6397C99.5142 74.4477 99.3915 74.2557 99.2209 74.0637C99.0609 73.8611 98.8422 73.6904 98.5649 73.5517C98.2875 73.4131 97.9249 73.3437 97.4769 73.3437C96.8049 73.3437 96.2715 73.5197 95.8769 73.8717C95.4929 74.2237 95.2849 74.7997 95.2529 75.5997C95.2209 76.5171 95.2209 77.4504 95.2529 78.3997C95.2849 79.2317 95.4982 79.8291 95.8929 80.1917C96.2982 80.5544 96.8369 80.7357 97.5089 80.7357C97.9462 80.7357 98.3355 80.6611 98.6769 80.5117C99.0289 80.3517 99.3062 80.1064 99.5089 79.7757C99.7115 79.4451 99.8129 79.0237 99.8129 78.5117V78.1117H98.0689C97.9622 78.1117 97.8715 78.0744 97.7969 77.9997C97.7222 77.9144 97.6849 77.8184 97.6849 77.7117V76.6877C97.6849 76.5704 97.7222 76.4744 97.7969 76.3997C97.8715 76.3251 97.9622 76.2877 98.0689 76.2877H101.989C102.106 76.2877 102.202 76.3251 102.277 76.3997C102.352 76.4744 102.389 76.5704 102.389 76.6877V78.4317C102.389 79.3491 102.186 80.1331 101.781 80.7837C101.386 81.4344 100.816 81.9357 100.069 82.2877C99.3329 82.6291 98.4689 82.7997 97.4769 82.7997ZM107.876 82.7997C106.65 82.7997 105.674 82.4584 104.948 81.7757C104.234 81.0931 103.855 80.1011 103.812 78.7997C103.812 78.7144 103.812 78.6024 103.812 78.4637C103.812 78.3144 103.812 78.1971 103.812 78.1117C103.855 77.2904 104.042 76.5864 104.372 75.9997C104.703 75.4024 105.167 74.9491 105.764 74.6397C106.362 74.3197 107.06 74.1597 107.86 74.1597C108.756 74.1597 109.503 74.3464 110.1 74.7197C110.708 75.0824 111.162 75.5837 111.46 76.2237C111.77 76.8531 111.924 77.5784 111.924 78.3997V78.7677C111.924 78.8744 111.882 78.9651 111.796 79.0397C111.722 79.1144 111.631 79.1517 111.524 79.1517H106.292C106.292 79.1624 106.292 79.1837 106.292 79.2157C106.292 79.2371 106.292 79.2584 106.292 79.2797C106.303 79.6211 106.367 79.9357 106.484 80.2237C106.612 80.5011 106.788 80.7251 107.012 80.8957C107.247 81.0664 107.524 81.1517 107.844 81.1517C108.111 81.1517 108.33 81.1144 108.5 81.0397C108.671 80.9651 108.81 80.8744 108.916 80.7677C109.034 80.6611 109.119 80.5704 109.172 80.4957C109.268 80.3891 109.343 80.3251 109.396 80.3037C109.46 80.2717 109.556 80.2557 109.684 80.2557H111.348C111.455 80.2557 111.54 80.2877 111.604 80.3517C111.679 80.4051 111.711 80.4851 111.7 80.5917C111.69 80.7624 111.599 80.9757 111.428 81.2317C111.268 81.4771 111.028 81.7224 110.708 81.9677C110.388 82.2024 109.988 82.3997 109.508 82.5597C109.039 82.7197 108.495 82.7997 107.876 82.7997ZM106.292 77.6957H109.428V77.6637C109.428 77.2797 109.364 76.9491 109.236 76.6717C109.119 76.3837 108.943 76.1597 108.708 75.9997C108.474 75.8397 108.191 75.7597 107.86 75.7597C107.53 75.7597 107.247 75.8397 107.012 75.9997C106.778 76.1597 106.596 76.3837 106.468 76.6717C106.351 76.9491 106.292 77.2797 106.292 77.6637V77.6957ZM113.908 82.6397C113.801 82.6397 113.71 82.6024 113.636 82.5277C113.561 82.4531 113.524 82.3571 113.524 82.2397V74.7197C113.524 74.6024 113.561 74.5064 113.636 74.4317C113.71 74.3571 113.801 74.3197 113.908 74.3197H115.476C115.593 74.3197 115.689 74.3571 115.764 74.4317C115.838 74.5064 115.876 74.6024 115.876 74.7197V75.3437C116.153 75.0024 116.51 74.7197 116.948 74.4957C117.385 74.2717 117.918 74.1597 118.548 74.1597C119.177 74.1597 119.726 74.3037 120.196 74.5917C120.676 74.8691 121.049 75.2797 121.316 75.8237C121.593 76.3571 121.732 77.0077 121.732 77.7757V82.2397C121.732 82.3571 121.689 82.4531 121.604 82.5277C121.529 82.6024 121.438 82.6397 121.332 82.6397H119.636C119.518 82.6397 119.422 82.6024 119.348 82.5277C119.273 82.4531 119.236 82.3571 119.236 82.2397V77.8717C119.236 77.3064 119.097 76.8691 118.82 76.5597C118.553 76.2397 118.158 76.0797 117.636 76.0797C117.134 76.0797 116.734 76.2397 116.436 76.5597C116.137 76.8691 115.988 77.3064 115.988 77.8717V82.2397C115.988 82.3571 115.95 82.4531 115.876 82.5277C115.801 82.6024 115.71 82.6397 115.604 82.6397H113.908ZM127.361 82.7997C126.134 82.7997 125.158 82.4584 124.433 81.7757C123.718 81.0931 123.339 80.1011 123.297 78.7997C123.297 78.7144 123.297 78.6024 123.297 78.4637C123.297 78.3144 123.297 78.1971 123.297 78.1117C123.339 77.2904 123.526 76.5864 123.857 75.9997C124.187 75.4024 124.651 74.9491 125.249 74.6397C125.846 74.3197 126.545 74.1597 127.345 74.1597C128.241 74.1597 128.987 74.3464 129.585 74.7197C130.193 75.0824 130.646 75.5837 130.945 76.2237C131.254 76.8531 131.409 77.5784 131.409 78.3997V78.7677C131.409 78.8744 131.366 78.9651 131.281 79.0397C131.206 79.1144 131.115 79.1517 131.009 79.1517H125.777C125.777 79.1624 125.777 79.1837 125.777 79.2157C125.777 79.2371 125.777 79.2584 125.777 79.2797C125.787 79.6211 125.851 79.9357 125.969 80.2237C126.097 80.5011 126.273 80.7251 126.497 80.8957C126.731 81.0664 127.009 81.1517 127.329 81.1517C127.595 81.1517 127.814 81.1144 127.985 81.0397C128.155 80.9651 128.294 80.8744 128.401 80.7677C128.518 80.6611 128.603 80.5704 128.657 80.4957C128.753 80.3891 128.827 80.3251 128.881 80.3037C128.945 80.2717 129.041 80.2557 129.169 80.2557H130.833C130.939 80.2557 131.025 80.2877 131.089 80.3517C131.163 80.4051 131.195 80.4851 131.185 80.5917C131.174 80.7624 131.083 80.9757 130.913 81.2317C130.753 81.4771 130.513 81.7224 130.193 81.9677C129.873 82.2024 129.473 82.3997 128.993 82.5597C128.523 82.7197 127.979 82.7997 127.361 82.7997ZM125.777 77.6957H128.913V77.6637C128.913 77.2797 128.849 76.9491 128.721 76.6717C128.603 76.3837 128.427 76.1597 128.193 75.9997C127.958 75.8397 127.675 75.7597 127.345 75.7597C127.014 75.7597 126.731 75.8397 126.497 75.9997C126.262 76.1597 126.081 76.3837 125.953 76.6717C125.835 76.9491 125.777 77.2797 125.777 77.6637V77.6957ZM133.392 82.6397C133.285 82.6397 133.195 82.6024 133.12 82.5277C133.045 82.4531 133.008 82.3571 133.008 82.2397V74.7197C133.008 74.6131 133.045 74.5224 133.12 74.4477C133.195 74.3624 133.285 74.3197 133.392 74.3197H134.96C135.067 74.3197 135.157 74.3624 135.232 74.4477C135.317 74.5224 135.36 74.6131 135.36 74.7197V75.3597C135.627 75.0291 135.952 74.7731 136.336 74.5917C136.731 74.4104 137.184 74.3197 137.696 74.3197H138.384C138.491 74.3197 138.581 74.3571 138.656 74.4317C138.731 74.5064 138.768 74.6024 138.768 74.7197V76.0957C138.768 76.2131 138.731 76.3091 138.656 76.3837C138.581 76.4584 138.491 76.4957 138.384 76.4957H136.976C136.507 76.4957 136.139 76.6291 135.872 76.8957C135.605 77.1517 135.472 77.5197 135.472 77.9997V82.2397C135.472 82.3571 135.435 82.4531 135.36 82.5277C135.285 82.6024 135.189 82.6397 135.072 82.6397H133.392ZM142.269 82.7997C141.703 82.7997 141.197 82.6931 140.749 82.4797C140.301 82.2557 139.943 81.9571 139.677 81.5837C139.41 81.2104 139.277 80.7944 139.277 80.3357C139.277 79.5784 139.581 78.9811 140.189 78.5437C140.807 78.1064 141.618 77.8077 142.621 77.6477L144.717 77.3437V77.0557C144.717 76.6397 144.621 76.3197 144.429 76.0957C144.237 75.8717 143.901 75.7597 143.421 75.7597C143.069 75.7597 142.786 75.8291 142.573 75.9677C142.359 76.1064 142.194 76.2877 142.077 76.5117C141.991 76.6504 141.869 76.7197 141.709 76.7197H140.189C140.071 76.7197 139.981 76.6877 139.917 76.6237C139.853 76.5491 139.826 76.4637 139.837 76.3677C139.837 76.1864 139.906 75.9731 140.045 75.7277C140.183 75.4824 140.397 75.2424 140.685 75.0077C140.973 74.7624 141.341 74.5597 141.789 74.3997C142.237 74.2397 142.786 74.1597 143.437 74.1597C144.109 74.1597 144.685 74.2397 145.165 74.3997C145.645 74.5597 146.029 74.7837 146.317 75.0717C146.605 75.3597 146.818 75.6957 146.957 76.0797C147.095 76.4531 147.165 76.8584 147.165 77.2957V82.2397C147.165 82.3571 147.127 82.4531 147.053 82.5277C146.978 82.6024 146.882 82.6397 146.765 82.6397H145.197C145.09 82.6397 144.999 82.6024 144.925 82.5277C144.85 82.4531 144.813 82.3571 144.813 82.2397V81.6477C144.674 81.8504 144.487 82.0424 144.253 82.2237C144.018 82.3944 143.735 82.5331 143.405 82.6397C143.084 82.7464 142.706 82.7997 142.269 82.7997ZM142.909 81.1357C143.261 81.1357 143.575 81.0611 143.853 80.9117C144.13 80.7624 144.349 80.5331 144.509 80.2237C144.669 79.9144 144.749 79.5251 144.749 79.0557V78.7837L143.261 79.0237C142.685 79.1197 142.263 79.2637 141.997 79.4557C141.73 79.6477 141.597 79.8824 141.597 80.1597C141.597 80.3624 141.655 80.5384 141.773 80.6877C141.901 80.8371 142.066 80.9491 142.269 81.0237C142.471 81.0984 142.685 81.1357 142.909 81.1357ZM153.039 82.6397C152.378 82.6397 151.813 82.5331 151.343 82.3197C150.874 82.0957 150.517 81.7544 150.271 81.2957C150.037 80.8371 149.919 80.2611 149.919 79.5677V76.2077H148.671C148.554 76.2077 148.458 76.1704 148.383 76.0957C148.309 76.0211 148.271 75.9251 148.271 75.8077V74.7197C148.271 74.6024 148.309 74.5064 148.383 74.4317C148.458 74.3571 148.554 74.3197 148.671 74.3197H149.919V71.6797C149.919 71.5624 149.957 71.4664 150.031 71.3917C150.117 71.3171 150.213 71.2797 150.319 71.2797H151.887C152.005 71.2797 152.101 71.3171 152.175 71.3917C152.25 71.4664 152.287 71.5624 152.287 71.6797V74.3197H154.287C154.394 74.3197 154.485 74.3571 154.559 74.4317C154.634 74.5064 154.671 74.6024 154.671 74.7197V75.8077C154.671 75.9251 154.634 76.0211 154.559 76.0957C154.485 76.1704 154.394 76.2077 154.287 76.2077H152.287V79.3757C152.287 79.7811 152.357 80.1011 152.495 80.3357C152.645 80.5597 152.901 80.6717 153.263 80.6717H154.431C154.538 80.6717 154.629 80.7091 154.703 80.7837C154.778 80.8584 154.815 80.9491 154.815 81.0557V82.2397C154.815 82.3571 154.778 82.4531 154.703 82.5277C154.629 82.6024 154.538 82.6397 154.431 82.6397H153.039ZM156.595 82.6397C156.488 82.6397 156.398 82.6024 156.323 82.5277C156.248 82.4531 156.211 82.3571 156.211 82.2397V74.7197C156.211 74.6024 156.248 74.5064 156.323 74.4317C156.398 74.3571 156.488 74.3197 156.595 74.3197H158.195C158.312 74.3197 158.408 74.3571 158.483 74.4317C158.558 74.5064 158.595 74.6024 158.595 74.7197V82.2397C158.595 82.3571 158.558 82.4531 158.483 82.5277C158.408 82.6024 158.312 82.6397 158.195 82.6397H156.595ZM156.547 73.0397C156.44 73.0397 156.35 73.0024 156.275 72.9277C156.2 72.8531 156.163 72.7571 156.163 72.6397V71.3597C156.163 71.2424 156.2 71.1464 156.275 71.0717C156.35 70.9864 156.44 70.9437 156.547 70.9437H158.227C158.344 70.9437 158.44 70.9864 158.515 71.0717C158.6 71.1464 158.643 71.2424 158.643 71.3597V72.6397C158.643 72.7571 158.6 72.8531 158.515 72.9277C158.44 73.0024 158.344 73.0397 158.227 73.0397H156.547ZM164.472 82.7997C163.587 82.7997 162.846 82.6557 162.248 82.3677C161.651 82.0691 161.192 81.6477 160.872 81.1037C160.563 80.5597 160.392 79.9251 160.36 79.1997C160.35 78.9864 160.344 78.7464 160.344 78.4797C160.344 78.2024 160.35 77.9624 160.36 77.7597C160.392 77.0237 160.574 76.3891 160.904 75.8557C161.235 75.3117 161.699 74.8957 162.296 74.6077C162.894 74.3091 163.619 74.1597 164.472 74.1597C165.315 74.1597 166.035 74.3091 166.632 74.6077C167.23 74.8957 167.694 75.3117 168.024 75.8557C168.355 76.3891 168.536 77.0237 168.568 77.7597C168.59 77.9624 168.6 78.2024 168.6 78.4797C168.6 78.7464 168.59 78.9864 168.568 79.1997C168.536 79.9251 168.36 80.5597 168.04 81.1037C167.731 81.6477 167.278 82.0691 166.68 82.3677C166.083 82.6557 165.347 82.7997 164.472 82.7997ZM164.472 81.0397C164.995 81.0397 165.39 80.8797 165.656 80.5597C165.923 80.2291 166.067 79.7491 166.088 79.1197C166.099 78.9597 166.104 78.7464 166.104 78.4797C166.104 78.2131 166.099 77.9997 166.088 77.8397C166.067 77.2211 165.923 76.7464 165.656 76.4157C165.39 76.0851 164.995 75.9197 164.472 75.9197C163.95 75.9197 163.55 76.0851 163.272 76.4157C163.006 76.7464 162.862 77.2211 162.84 77.8397C162.83 77.9997 162.824 78.2131 162.824 78.4797C162.824 78.7464 162.83 78.9597 162.84 79.1197C162.862 79.7491 163.006 80.2291 163.272 80.5597C163.55 80.8797 163.95 81.0397 164.472 81.0397ZM170.658 82.6397C170.551 82.6397 170.46 82.6024 170.386 82.5277C170.311 82.4531 170.274 82.3571 170.274 82.2397V74.7197C170.274 74.6024 170.311 74.5064 170.386 74.4317C170.46 74.3571 170.551 74.3197 170.658 74.3197H172.226C172.343 74.3197 172.439 74.3571 172.514 74.4317C172.588 74.5064 172.626 74.6024 172.626 74.7197V75.3437C172.903 75.0024 173.26 74.7197 173.698 74.4957C174.135 74.2717 174.668 74.1597 175.298 74.1597C175.927 74.1597 176.476 74.3037 176.946 74.5917C177.426 74.8691 177.799 75.2797 178.066 75.8237C178.343 76.3571 178.482 77.0077 178.482 77.7757V82.2397C178.482 82.3571 178.439 82.4531 178.354 82.5277C178.279 82.6024 178.188 82.6397 178.082 82.6397H176.386C176.268 82.6397 176.172 82.6024 176.098 82.5277C176.023 82.4531 175.986 82.3571 175.986 82.2397V77.8717C175.986 77.3064 175.847 76.8691 175.57 76.5597C175.303 76.2397 174.908 76.0797 174.386 76.0797C173.884 76.0797 173.484 76.2397 173.186 76.5597C172.887 76.8691 172.738 77.3064 172.738 77.8717V82.2397C172.738 82.3571 172.7 82.4531 172.626 82.5277C172.551 82.6024 172.46 82.6397 172.354 82.6397H170.658Z" fill="#121212"/>
</svg>
