<svg width="24" height="25" viewBox="0 0 24 25" fill="none" xmlns="http://www.w3.org/2000/svg">
<rect width="24" height="24" transform="translate(0 0.5)" fill="transparan"/>
<path fill-rule="evenodd" clip-rule="evenodd" d="M23.04 12.7614C23.04 11.9459 22.9668 11.1618 22.8309 10.4091H12V14.8575H18.1891C17.9225 16.295 17.1123 17.513 15.8943 18.3284V21.2139H19.6109C21.7855 19.2118 23.04 16.2636 23.04 12.7614Z" fill="#4285F4"/>
<path fill-rule="evenodd" clip-rule="evenodd" d="M11.9995 23.9998C15.1045 23.9998 17.7077 22.9701 19.6104 21.2137L15.8938 18.3282C14.864 19.0182 13.5467 19.426 11.9995 19.426C9.00425 19.426 6.46902 17.403 5.5647 14.6848H1.72266V17.6644C3.61493 21.4228 7.50402 23.9998 11.9995 23.9998Z" fill="#34A853"/>
<path fill-rule="evenodd" clip-rule="evenodd" d="M5.56523 14.6851C5.33523 13.9951 5.20455 13.258 5.20455 12.5001C5.20455 11.7421 5.33523 11.0051 5.56523 10.3151V7.33551H1.72318C0.944318 8.88801 0.5 10.6444 0.5 12.5001C0.5 14.3557 0.944318 16.1121 1.72318 17.6646L5.56523 14.6851Z" fill="#FBBC05"/>
<path fill-rule="evenodd" clip-rule="evenodd" d="M11.9995 5.57386C13.6879 5.57386 15.2038 6.15409 16.3956 7.29364L19.694 3.99523C17.7024 2.13955 15.0992 1 11.9995 1C7.50402 1 3.61493 3.57705 1.72266 7.33545L5.5647 10.315C6.46902 7.59682 9.00425 5.57386 11.9995 5.57386Z" fill="#EA4335"/>
</svg>
