<svg width="26" height="26" viewBox="0 0 26 26" fill="none" xmlns="http://www.w3.org/2000/svg">
<path d="M12.9993 18.3335C15.9448 18.3335 18.3327 15.9456 18.3327 13.0001C18.3327 10.0546 15.9448 7.66681 12.9993 7.66681C10.0538 7.66681 7.66602 10.0546 7.66602 13.0001C7.66602 15.9456 10.0538 18.3335 12.9993 18.3335Z" stroke="white" stroke-width="2" stroke-linecap="round" stroke-linejoin="round"/>
<path d="M1 18.3333V7.66667C1 3.98477 3.98477 1 7.66667 1H18.3333C22.0152 1 25 3.98477 25 7.66667V18.3333C25 22.0152 22.0152 25 18.3333 25H7.66667C3.98477 25 1 22.0152 1 18.3333Z" stroke="white" stroke-width="2"/>
<path d="M20.334 5.68004L20.3473 5.66522" stroke="white" stroke-width="2" stroke-linecap="round" stroke-linejoin="round"/>
</svg>
