<svg width="200" height="59" viewBox="0 0 200 59" fill="none" xmlns="http://www.w3.org/2000/svg">
<path d="M3.04781 57.6398C2.51448 57.6398 2.03448 57.4531 1.60781 57.0798C1.18115 56.6531 0.967813 56.1464 0.967813 55.5598V3.71977C0.967813 3.1331 1.18115 2.6531 1.60781 2.27977C2.03448 1.8531 2.51448 1.63977 3.04781 1.63977H16.6478C17.2345 1.63977 17.7145 1.8531 18.0878 2.27977C18.5145 2.6531 18.7278 3.1331 18.7278 3.71977V55.5598C18.7278 56.1464 18.5145 56.6531 18.0878 57.0798C17.7145 57.4531 17.2345 57.6398 16.6478 57.6398H3.04781ZM47.1041 57.6398C46.5174 57.6398 46.0107 57.4531 45.5841 57.0798C45.2107 56.6531 45.0241 56.1464 45.0241 55.5598V16.5198H31.2641C30.6774 16.5198 30.1707 16.3331 29.7441 15.9598C29.3707 15.5331 29.1841 15.0264 29.1841 14.4398V3.71977C29.1841 3.1331 29.3707 2.6531 29.7441 2.27977C30.1707 1.8531 30.6774 1.63977 31.2641 1.63977H76.2241C76.8107 1.63977 77.2907 1.8531 77.6641 2.27977C78.0907 2.6531 78.3041 3.1331 78.3041 3.71977V14.4398C78.3041 15.0264 78.0907 15.5331 77.6641 15.9598C77.2907 16.3331 76.8107 16.5198 76.2241 16.5198H62.4641V55.5598C62.4641 56.1464 62.2507 56.6531 61.8241 57.0798C61.4507 57.4531 60.9707 57.6398 60.3841 57.6398H47.1041ZM112.268 58.4398C107.202 58.4398 102.775 57.6664 98.9884 56.1198C95.2018 54.5198 92.2151 52.1198 90.0284 48.9198C87.8951 45.7198 86.7218 41.6664 86.5084 36.7598C86.4551 34.5731 86.4284 32.2264 86.4284 29.7198C86.4284 27.2131 86.4551 24.8131 86.5084 22.5198C86.7218 17.7198 87.9218 13.7198 90.1084 10.5198C92.3484 7.26643 95.3618 4.83977 99.1484 3.23977C102.988 1.63977 107.362 0.839767 112.268 0.839767C115.788 0.839767 119.068 1.26643 122.108 2.11977C125.202 2.91977 127.948 4.1731 130.348 5.87977C132.748 7.5331 134.642 9.6131 136.028 12.1198C137.415 14.5731 138.135 17.4531 138.188 20.7598C138.188 21.2398 138.002 21.6398 137.628 21.9598C137.308 22.2798 136.908 22.4398 136.428 22.4398H122.908C122.108 22.4398 121.522 22.2798 121.148 21.9598C120.775 21.6398 120.455 21.0798 120.188 20.2798C119.495 17.9864 118.482 16.4398 117.148 15.6398C115.815 14.8398 114.188 14.4398 112.268 14.4398C109.922 14.4398 108.055 15.0798 106.668 16.3598C105.282 17.5864 104.535 19.7731 104.428 22.9198C104.268 27.2931 104.268 31.7731 104.428 36.3598C104.535 39.5064 105.282 41.7198 106.668 42.9998C108.055 44.2264 109.922 44.8398 112.268 44.8398C114.188 44.8398 115.815 44.4131 117.148 43.5598C118.535 42.7064 119.548 41.1864 120.188 38.9998C120.402 38.1464 120.695 37.5864 121.068 37.3198C121.495 36.9998 122.108 36.8398 122.908 36.8398H136.428C136.908 36.8398 137.308 36.9998 137.628 37.3198C138.002 37.6398 138.188 38.0398 138.188 38.5198C138.135 41.8264 137.415 44.7331 136.028 47.2398C134.642 49.6931 132.748 51.7731 130.348 53.4798C127.948 55.1331 125.202 56.3864 122.108 57.2398C119.068 58.0398 115.788 58.4398 112.268 58.4398ZM173.69 58.4398C168.624 58.4398 164.197 57.6664 160.41 56.1198C156.624 54.5198 153.637 52.1198 151.45 48.9198C149.317 45.7198 148.144 41.6664 147.93 36.7598C147.877 34.5731 147.85 32.2264 147.85 29.7198C147.85 27.2131 147.877 24.8131 147.93 22.5198C148.144 17.7198 149.344 13.7198 151.53 10.5198C153.77 7.26643 156.784 4.83977 160.57 3.23977C164.41 1.63977 168.784 0.839767 173.69 0.839767C177.21 0.839767 180.49 1.26643 183.53 2.11977C186.624 2.91977 189.37 4.1731 191.77 5.87977C194.17 7.5331 196.064 9.6131 197.45 12.1198C198.837 14.5731 199.557 17.4531 199.61 20.7598C199.61 21.2398 199.424 21.6398 199.05 21.9598C198.73 22.2798 198.33 22.4398 197.85 22.4398H184.33C183.53 22.4398 182.944 22.2798 182.57 21.9598C182.197 21.6398 181.877 21.0798 181.61 20.2798C180.917 17.9864 179.904 16.4398 178.57 15.6398C177.237 14.8398 175.61 14.4398 173.69 14.4398C171.344 14.4398 169.477 15.0798 168.09 16.3598C166.704 17.5864 165.957 19.7731 165.85 22.9198C165.69 27.2931 165.69 31.7731 165.85 36.3598C165.957 39.5064 166.704 41.7198 168.09 42.9998C169.477 44.2264 171.344 44.8398 173.69 44.8398C175.61 44.8398 177.237 44.4131 178.57 43.5598C179.957 42.7064 180.97 41.1864 181.61 38.9998C181.824 38.1464 182.117 37.5864 182.49 37.3198C182.917 36.9998 183.53 36.8398 184.33 36.8398H197.85C198.33 36.8398 198.73 36.9998 199.05 37.3198C199.424 37.6398 199.61 38.0398 199.61 38.5198C199.557 41.8264 198.837 44.7331 197.45 47.2398C196.064 49.6931 194.17 51.7731 191.77 53.4798C189.37 55.1331 186.624 56.3864 183.53 57.2398C180.49 58.0398 177.21 58.4398 173.69 58.4398Z" fill="#328AC9"/>
</svg>
