<svg width="68" height="68" viewBox="0 0 68 68" fill="none" xmlns="http://www.w3.org/2000/svg">
<g clip-path="url(#clip0_311_2532)">
<path d="M24.7045 58.5947L27.4181 59.4153C28.7105 56.7738 30.8564 54.1083 33.9204 51.4384C40.0287 46.1631 50.2977 42.2871 57.9188 42.9697L58.7394 40.2561C55.4203 38.4062 52.4198 35.7359 49.7829 32.3293C44.3995 25.4125 41.5482 16.6522 42.4232 9.7944L39.7095 8.97381C38.0279 12.2028 35.5454 15.0486 32.2035 17.705C25.6037 22.9727 16.9471 25.7144 9.11858 25.2511L8.29799 27.9647C11.7463 29.8537 14.9467 32.796 17.7894 36.6879C23.5844 44.5754 25.4156 52.7452 24.7045 58.5947Z" fill="#6AD5BF"/>
</g>
<defs>
<clipPath id="clip0_311_2532">
<rect width="54" height="54" fill="white" transform="translate(15.6302) rotate(16.8249)"/>
</clipPath>
</defs>
</svg>
