<svg width="37" height="28" viewBox="0 0 37 28" fill="none" xmlns="http://www.w3.org/2000/svg">
<path d="M22.2807 14.0001L16.3652 17.3804V10.6199L22.2807 14.0001Z" fill="white" stroke="white" stroke-width="2.3" stroke-linecap="round" stroke-linejoin="round"/>
<path d="M2 15.1959V12.8041C2 7.91064 2 5.4639 3.53039 3.8896C5.06081 2.31529 7.4702 2.24715 12.289 2.11086C14.5724 2.04628 16.9049 2 18.9013 2C20.8977 2 23.2302 2.04628 25.5136 2.11086C30.3323 2.24715 32.7418 2.31529 34.2722 3.8896C35.8026 5.4639 35.8026 7.91064 35.8026 12.8041V15.1959C35.8026 20.0893 35.8026 22.5361 34.2722 24.1103C32.7418 25.6846 30.3325 25.7527 25.5138 25.8891C23.2302 25.9537 20.8977 26 18.9013 26C16.9049 26 14.5723 25.9537 12.2888 25.8891C7.47012 25.7527 5.06077 25.6846 3.53038 24.1103C2 22.5361 2 20.0893 2 15.1959Z" stroke="white" stroke-width="2.3"/>
</svg>
